STARTFONT 2.1
COMMENT
COMMENT Converted from OpenType font "..\ttf\ITC Avant Garde Gothic CE Book.otf" by "otf2bdf.exe 3.0".
COMMENT
FONT -FreeType-AvantGarde CE-Medium-R-Normal--44-320-100-100-P-204-ISO10646-1
SIZE 32 100 100
FONTBOUNDINGBOX 53 53 -3 -10
STARTPROPERTIES 19
FOUNDRY "FreeType"
FAMILY_NAME "AvantGarde CE"
WEIGHT_NAME "Medium"
SLANT "R"
SETWIDTH_NAME "Normal"
ADD_STYLE_NAME ""
PIXEL_SIZE 44
POINT_SIZE 320
RESOLUTION_X 100
RESOLUTION_Y 100
SPACING "P"
AVERAGE_WIDTH 204
CHARSET_REGISTRY "ISO10646"
CHARSET_ENCODING "1"
FONT_ASCENT 32
FONT_DESCENT 8
COPYRIGHT "Copyright (c) 1985, 1987, 1989, 1990, 1991, 1992, 1997 Adobe Systems Incorporated.  All Rights Reserved.ITC Avant Garde Gothic is a registered trademark of International Typeface Corporation."
_OTF_FONTFILE "..\ttf\ITC Avant Garde Gothic CE Book.otf"
_OTF_PSNAME "AvantGardeCE-Book"
ENDPROPERTIES
CHARS 260
STARTCHAR 0020
ENCODING 32
SWIDTH 270 0
DWIDTH 12 0
BBX 0 0 0 0
BITMAP
ENDCHAR
STARTCHAR 0021
ENCODING 33
SWIDTH 292 0
DWIDTH 13 0
BBX 3 32 5 0
BITMAP
E0
E0
E0
E0
E0
E0
E0
E0
E0
E0
E0
E0
E0
E0
E0
E0
E0
E0
E0
E0
E0
E0
E0
E0
00
00
E0
E0
E0
E0
E0
E0
ENDCHAR
STARTCHAR 0022
ENCODING 34
SWIDTH 315 0
DWIDTH 14 0
BBX 10 13 2 19
BITMAP
E1C0
E1C0
E1C0
E1C0
E1C0
E1C0
E1C0
E1C0
E1C0
E1C0
E1C0
E1C0
E1C0
ENDCHAR
STARTCHAR 0023
ENCODING 35
SWIDTH 562 0
DWIDTH 25 0
BBX 21 32 1 0
BITMAP
01C0E0
01C0C0
01C1C0
01C1C0
01C1C0
01C1C0
0181C0
0381C0
038180
7FFFF8
7FFFF8
7FFFF8
038380
030380
070380
070300
070700
070700
070700
070700
FFFFF0
FFFFF0
FFFFF0
0E0E00
0E0E00
0E0E00
0E0E00
0E0E00
1C0E00
1C0E00
1C1C00
1C1C00
ENDCHAR
STARTCHAR 0024
ENCODING 36
SWIDTH 562 0
DWIDTH 25 0
BBX 18 38 3 -3
BITMAP
00E000
00E000
00E000
00F000
07FE00
0FFF00
1E0F80
380380
7803C0
7001C0
7001C0
700000
700000
780000
380000
3E0000
1FC000
0FF800
01FE00
003F00
000F80
000380
0003C0
0001C0
0001C0
E001C0
E001C0
F001C0
700380
780380
3E0F00
1FFF00
0FFC00
01F000
00E000
00E000
00E000
00E000
ENDCHAR
STARTCHAR 0025
ENCODING 37
SWIDTH 765 0
DWIDTH 34 0
BBX 32 34 1 -1
BITMAP
07E00000
1FF801C0
3FFC01C0
7C3E0380
700E0300
F00F0700
E0070E00
E0070E00
E0071C00
E0071C00
F00F3800
700E3000
7C3E7000
3FFCE000
0FF0E000
03C1C000
0001C000
000383C0
00030FF0
00073FFC
000E3C3C
000E781E
001C700F
001CE007
0038E007
0030E007
0070E007
00E0E007
00E0700E
01C0781E
01C03C3C
03803FFC
03000FF0
000003C0
ENDCHAR
STARTCHAR 0026
ENCODING 38
SWIDTH 765 0
DWIDTH 34 0
BBX 30 34 2 -1
BITMAP
003C0000
01FF8000
03FFC000
07C3E000
0700E000
0E007000
0E007000
0E007000
0E007000
0F00F000
0781E000
07C3E000
03EFC0F0
01FF80E0
01FE01E0
07FC01C0
0FFE03C0
1F1F0380
3C0F8780
7807C700
7003EF00
F001FE00
E000FE00
E0007C00
E0003E00
E0003F00
E0007F80
7000F7C0
7800F3E0
3C01E1F0
1F07C078
0FFF803C
07FF001C
00F80000
ENDCHAR
STARTCHAR 0027
ENCODING 39
SWIDTH 202 0
DWIDTH 9 0
BBX 3 13 3 19
BITMAP
E0
E0
E0
E0
E0
E0
E0
E0
E0
E0
E0
E0
E0
ENDCHAR
STARTCHAR 0028
ENCODING 40
SWIDTH 360 0
DWIDTH 16 0
BBX 13 42 2 -9
BITMAP
0008
0038
0078
00F8
01E0
03C0
0780
0F00
0E00
1E00
3C00
3C00
3800
7800
7000
7000
F000
E000
E000
E000
E000
E000
E000
E000
E000
F000
7000
7000
7800
3800
3C00
3C00
1E00
0E00
0F00
0780
03C0
01E0
00F8
0078
0038
0008
ENDCHAR
STARTCHAR 0029
ENCODING 41
SWIDTH 360 0
DWIDTH 16 0
BBX 13 42 1 -8
BITMAP
C000
E000
F800
FC00
3E00
1F00
0F00
0780
03C0
03C0
01E0
00E0
00F0
00F0
0070
0070
0078
0038
0038
0038
0038
0038
0038
0038
0038
0078
0070
0070
0070
00E0
00E0
01E0
03C0
0380
0780
0F00
1E00
3C00
F800
F000
E000
8000
ENDCHAR
STARTCHAR 002A
ENCODING 42
SWIDTH 427 0
DWIDTH 19 0
BBX 13 13 3 19
BITMAP
0700
0700
0700
8700
E738
FFF8
3FE0
0F80
1FC0
1DC0
38E0
70F0
1040
ENDCHAR
STARTCHAR 002B
ENCODING 43
SWIDTH 607 0
DWIDTH 27 0
BBX 23 22 2 1
BITMAP
003800
003800
003800
003800
003800
003800
003800
003800
003800
FFFFFE
FFFFFE
FFFFFE
003800
003800
003800
003800
003800
003800
003800
003800
003800
003800
ENDCHAR
STARTCHAR 002C
ENCODING 44
SWIDTH 270 0
DWIDTH 12 0
BBX 7 8 1 -3
BITMAP
0E
1C
1C
38
38
70
70
E0
ENDCHAR
STARTCHAR 002D
ENCODING 45
SWIDTH 337 0
DWIDTH 15 0
BBX 12 3 1 11
BITMAP
FFF0
FFF0
FFF0
ENDCHAR
STARTCHAR 002E
ENCODING 46
SWIDTH 270 0
DWIDTH 12 0
BBX 3 6 4 0
BITMAP
E0
E0
E0
E0
E0
E0
ENDCHAR
STARTCHAR 002F
ENCODING 47
SWIDTH 427 0
DWIDTH 19 0
BBX 16 37 2 -5
BITMAP
000F
000E
000E
001E
001C
001C
003C
0038
0038
0078
0070
0070
00F0
00E0
00E0
01E0
01C0
01C0
03C0
0380
0380
0780
0700
0700
0F00
0E00
0E00
1E00
1C00
3C00
3C00
3800
7800
7800
7000
F000
F000
ENDCHAR
STARTCHAR 0030
ENCODING 48
SWIDTH 562 0
DWIDTH 25 0
BBX 22 34 1 -1
BITMAP
00FC00
07FF80
0FFFC0
1F03E0
3C00F0
780078
700038
700038
F0001C
E0001C
E0001C
E0001C
E0001C
E0001C
E0001C
E0001C
E0001C
E0001C
E0001C
E0001C
E0001C
E0001C
E0001C
E0001C
E0001C
E0001C
700038
700038
780078
3C00F0
1F03E0
0FFFC0
07FF80
00FC00
ENDCHAR
STARTCHAR 0031
ENCODING 49
SWIDTH 562 0
DWIDTH 25 0
BBX 9 32 5 0
BITMAP
FF80
FF80
FF80
0380
0380
0380
0380
0380
0380
0380
0380
0380
0380
0380
0380
0380
0380
0380
0380
0380
0380
0380
0380
0380
0380
0380
0380
0380
0380
0380
0380
0380
ENDCHAR
STARTCHAR 0032
ENCODING 50
SWIDTH 562 0
DWIDTH 25 0
BBX 20 33 2 0
BITMAP
01F800
07FF00
1FFF80
3E07C0
3801C0
7001E0
7000E0
F00070
E00070
E00070
E00070
000070
0000F0
0000E0
0001E0
0003C0
000380
000780
000F00
001E00
003C00
007800
00F000
01E000
03C000
078000
0E0000
1C0000
380000
700000
FFFFF0
FFFFF0
FFFFF0
ENDCHAR
STARTCHAR 0033
ENCODING 51
SWIDTH 562 0
DWIDTH 25 0
BBX 21 34 1 -1
BITMAP
00FC00
03FF00
0FFF80
0F07C0
1E01C0
1C01E0
3800E0
3800E0
3800E0
0000E0
0001E0
0001C0
0007C0
00FF80
00FF00
00FF80
0007E0
0001E0
0000F0
000070
000078
000038
000038
E00038
E00038
E00038
F00078
700070
7800F0
3C01E0
1F07C0
0FFF80
07FF00
00F800
ENDCHAR
STARTCHAR 0034
ENCODING 52
SWIDTH 562 0
DWIDTH 25 0
BBX 22 32 1 0
BITMAP
0001E0
0003E0
0003E0
0007E0
000FE0
000EE0
001EE0
003CE0
0038E0
0078E0
00F0E0
00E0E0
01E0E0
03C0E0
0380E0
0780E0
0F00E0
0E00E0
1E00E0
3C00E0
3800E0
7800E0
F000E0
FFFFFC
FFFFFC
FFFFFC
0000E0
0000E0
0000E0
0000E0
0000E0
0000E0
ENDCHAR
STARTCHAR 0035
ENCODING 53
SWIDTH 562 0
DWIDTH 25 0
BBX 22 33 1 -1
BITMAP
07FFE0
07FFE0
07FFE0
0E0000
0E0000
0E0000
0E0000
0E0000
1E0000
1C0000
1CFE00
1FFF80
1FFFC0
1F03E0
3E00F0
3C0078
080038
000038
00001C
00001C
00001C
00001C
F0001C
70001C
70001C
780038
380038
3C0070
1E00F0
1F83E0
07FFC0
03FF00
007C00
ENDCHAR
STARTCHAR 0036
ENCODING 54
SWIDTH 562 0
DWIDTH 25 0
BBX 22 33 1 -1
BITMAP
000E00
001E00
003C00
003800
007000
00F000
01E000
01C000
03C000
078000
077E00
0FFF80
1FFFC0
1F03E0
3C00F0
380078
700038
700038
E0001C
E0001C
E0001C
E0001C
E0001C
E0001C
F0001C
700038
780038
380070
3C00F0
1F03E0
0FFFC0
03FF00
00FC00
ENDCHAR
STARTCHAR 0037
ENCODING 55
SWIDTH 562 0
DWIDTH 25 0
BBX 19 32 3 0
BITMAP
FFFFE0
FFFFE0
FFFFE0
0001E0
0001C0
0003C0
000380
000380
000700
000700
000F00
000E00
001E00
001C00
003C00
003800
007800
007000
00F000
00E000
01E000
01C000
01C000
038000
038000
078000
070000
0F0000
0E0000
1E0000
1C0000
3C0000
ENDCHAR
STARTCHAR 0038
ENCODING 56
SWIDTH 562 0
DWIDTH 25 0
BBX 20 34 2 -1
BITMAP
01F800
07FE00
0FFF00
0F0F80
1C0380
1C03C0
3801C0
3801C0
3801C0
3801C0
3801C0
1C0380
1E0780
0F0F00
07FE00
07FE00
0FFF00
1E07C0
3803C0
7801E0
7000E0
E00070
E00070
E00070
E00070
E00070
F00070
7000E0
7801E0
3C03C0
1F0780
0FFF00
07FE00
01F800
ENDCHAR
STARTCHAR 0039
ENCODING 57
SWIDTH 562 0
DWIDTH 25 0
BBX 22 33 1 0
BITMAP
00FC00
03FF80
0FFFC0
1F03E0
3C00F0
380070
700038
700038
F0003C
E0001C
E0001C
E0001C
E0001C
E0001C
F0001C
700038
780038
380070
3C00F0
1F03E0
0FFFE0
03FFC0
00FB80
000780
000F00
000E00
001E00
003C00
003800
007000
00F000
01E000
01C000
ENDCHAR
STARTCHAR 003A
ENCODING 58
SWIDTH 270 0
DWIDTH 12 0
BBX 3 24 4 0
BITMAP
E0
E0
E0
E0
E0
E0
00
00
00
00
00
00
00
00
00
00
00
00
E0
E0
E0
E0
E0
E0
ENDCHAR
STARTCHAR 003B
ENCODING 59
SWIDTH 270 0
DWIDTH 12 0
BBX 7 27 0 -3
BITMAP
0E
0E
0E
0E
0E
0E
00
00
00
00
00
00
00
00
00
00
00
00
00
0E
1C
1C
38
38
78
70
F0
ENDCHAR
STARTCHAR 003C
ENCODING 60
SWIDTH 607 0
DWIDTH 27 0
BBX 22 23 2 0
BITMAP
000004
00001C
00007C
0001F8
000FE0
003F80
00FE00
03F000
0FC000
7F0000
FC0000
F00000
FC0000
7F0000
1FC000
03F000
00FC00
003F80
000FE0
0003F8
00007C
00001C
000004
ENDCHAR
STARTCHAR 003D
ENCODING 61
SWIDTH 607 0
DWIDTH 27 0
BBX 22 12 2 5
BITMAP
FFFFFC
FFFFFC
FFFFFC
000000
000000
000000
000000
000000
000000
FFFFFC
FFFFFC
FFFFFC
ENDCHAR
STARTCHAR 003E
ENCODING 62
SWIDTH 607 0
DWIDTH 27 0
BBX 22 23 2 0
BITMAP
800000
E00000
F80000
7E0000
1FC000
07F000
01FC00
003F00
000FC0
0003F8
0000FC
00003C
0000FC
0003F8
000FE0
003F00
00FC00
07F000
1FC000
7F0000
F80000
E00000
800000
ENDCHAR
STARTCHAR 003F
ENCODING 63
SWIDTH 585 0
DWIDTH 26 0
BBX 20 33 3 0
BITMAP
01F000
07FE00
1FFF80
3E0FC0
3803C0
7001E0
7000E0
E00070
E00070
E00070
E00070
000070
0000E0
0001E0
0003C0
000780
000F00
001E00
003C00
003800
007000
007000
00E000
00E000
00E000
000000
000000
00E000
00E000
00E000
00E000
00E000
00E000
ENDCHAR
STARTCHAR 0040
ENCODING 64
SWIDTH 877 0
DWIDTH 39 0
BBX 32 35 3 -1
BITMAP
0007F800
003FFF00
00FFFFC0
01F807E0
07E001F0
0F800078
0F00003C
1E00001C
3C00001E
3803E00E
780FF18E
701FFB87
703C1F87
F0780F07
E0700707
E0700707
E0E00707
E0E00707
E0E00707
E0E0060E
E0E00E0E
F0F00E0E
70701E1C
70783E3C
783FF7F8
381FE7F0
3C0FC3C0
1E000000
1F000000
0F800000
07C00030
03F801F0
00FFFFE0
003FFF80
0003F800
ENDCHAR
STARTCHAR 0041
ENCODING 65
SWIDTH 742 0
DWIDTH 33 0
BBX 31 32 1 0
BITMAP
00078000
0007C000
0007C000
000FE000
000EE000
001EF000
001C7000
003C7000
00383800
00383800
00783C00
00701C00
00F01E00
00E00E00
01E00E00
01C00F00
01C00700
03C00780
03FFFF80
07FFFFC0
07FFFFC0
0F0001C0
0E0001E0
0E0000E0
1E0000F0
1C000070
3C000078
38000038
7800003C
7000003C
7000001C
F000001E
ENDCHAR
STARTCHAR 0042
ENCODING 66
SWIDTH 585 0
DWIDTH 26 0
BBX 21 32 3 0
BITMAP
FFF800
FFFE00
FFFF80
E00F80
E003C0
E001E0
E000E0
E000E0
E000E0
E000E0
E000E0
E001E0
E003C0
E00F80
FFFF00
FFFF80
FFFFC0
E003E0
E000F0
E00070
E00078
E00038
E00038
E00038
E00038
E00078
E00070
E000F0
E003E0
FFFFC0
FFFF80
FFFC00
ENDCHAR
STARTCHAR 0043
ENCODING 67
SWIDTH 810 0
DWIDTH 36 0
BBX 31 34 2 -1
BITMAP
0007F000
003FFE00
00FFFF80
01F80FE0
07E001F0
0F8000F8
0F00003C
1E00001E
3C00001E
38000000
78000000
70000000
70000000
F0000000
E0000000
E0000000
E0000000
E0000000
E0000000
E0000000
E0000000
70000000
70000000
78000000
38000000
3C00000E
1E00001E
0F00003C
0F8000F8
07E001F0
01F80FE0
00FFFF80
003FFE00
0007F000
ENDCHAR
STARTCHAR 0044
ENCODING 68
SWIDTH 742 0
DWIDTH 33 0
BBX 27 32 3 0
BITMAP
FFFC0000
FFFFC000
FFFFF000
E003F800
E0007C00
E0001E00
E0000F00
E0000780
E0000380
E00003C0
E00001C0
E00001C0
E00000E0
E00000E0
E00000E0
E00000E0
E00000E0
E00000E0
E00000E0
E00000E0
E00001C0
E00001C0
E00003C0
E0000380
E0000780
E0000F00
E0001E00
E0007C00
E003F800
FFFFE000
FFFF8000
FFFC0000
ENDCHAR
STARTCHAR 0045
ENCODING 69
SWIDTH 540 0
DWIDTH 24 0
BBX 17 32 3 0
BITMAP
FFFF80
FFFF80
FFFF80
E00000
E00000
E00000
E00000
E00000
E00000
E00000
E00000
E00000
E00000
E00000
FFFF80
FFFF80
FFFF80
E00000
E00000
E00000
E00000
E00000
E00000
E00000
E00000
E00000
E00000
E00000
E00000
FFFF80
FFFF80
FFFF80
ENDCHAR
STARTCHAR 0046
ENCODING 70
SWIDTH 495 0
DWIDTH 22 0
BBX 16 32 3 0
BITMAP
FFFF
FFFF
FFFF
E000
E000
E000
E000
E000
E000
E000
E000
E000
E000
E000
FFFF
FFFF
FFFF
E000
E000
E000
E000
E000
E000
E000
E000
E000
E000
E000
E000
E000
E000
E000
ENDCHAR
STARTCHAR 0047
ENCODING 71
SWIDTH 877 0
DWIDTH 39 0
BBX 34 34 2 -1
BITMAP
0007F80000
003FFF0000
00FFFFC000
01F807F000
03C000F800
0780007C00
0F00003E00
1E00001E00
3C00000F00
3800000000
7800000000
7000000000
7000000000
E000000000
E000000000
E000000000
E000000000
E000000000
E00FFFFFC0
E00FFFFFC0
F00FFFFFC0
70000003C0
7000000380
7800000780
3800000700
3C00000F00
1E00001E00
0F00003C00
0780007C00
03E001F000
01FC07E000
00FFFFC000
003FFF0000
0003F00000
ENDCHAR
STARTCHAR 0048
ENCODING 72
SWIDTH 675 0
DWIDTH 30 0
BBX 23 32 3 0
BITMAP
E0000E
E0000E
E0000E
E0000E
E0000E
E0000E
E0000E
E0000E
E0000E
E0000E
E0000E
E0000E
E0000E
E0000E
FFFFFE
FFFFFE
FFFFFE
E0000E
E0000E
E0000E
E0000E
E0000E
E0000E
E0000E
E0000E
E0000E
E0000E
E0000E
E0000E
E0000E
E0000E
E0000E
ENDCHAR
STARTCHAR 0049
ENCODING 73
SWIDTH 225 0
DWIDTH 10 0
BBX 3 32 3 0
BITMAP
E0
E0
E0
E0
E0
E0
E0
E0
E0
E0
E0
E0
E0
E0
E0
E0
E0
E0
E0
E0
E0
E0
E0
E0
E0
E0
E0
E0
E0
E0
E0
E0
ENDCHAR
STARTCHAR 004A
ENCODING 74
SWIDTH 472 0
DWIDTH 21 0
BBX 17 33 0 -1
BITMAP
000380
000380
000380
000380
000380
000380
000380
000380
000380
000380
000380
000380
000380
000380
000380
000380
000380
000380
000380
000380
000380
000380
000380
000380
000380
E00380
F00380
700780
780700
3E1F00
1FFE00
0FF800
03E000
ENDCHAR
STARTCHAR 004B
ENCODING 75
SWIDTH 585 0
DWIDTH 26 0
BBX 22 32 4 0
BITMAP
E0007C
E00078
E000F0
E001E0
E003C0
E00780
E00780
E00F00
E01E00
E03C00
E07800
E07800
E0F000
E1E000
E3C000
E78000
E7C000
EFE000
FFE000
FCF000
F87800
F03C00
F01E00
E01E00
E00F00
E00780
E003C0
E003C0
E001E0
E000F0
E00078
E0003C
ENDCHAR
STARTCHAR 004C
ENCODING 76
SWIDTH 472 0
DWIDTH 21 0
BBX 16 32 4 0
BITMAP
E000
E000
E000
E000
E000
E000
E000
E000
E000
E000
E000
E000
E000
E000
E000
E000
E000
E000
E000
E000
E000
E000
E000
E000
E000
E000
E000
E000
E000
FFFF
FFFF
FFFF
ENDCHAR
STARTCHAR 004D
ENCODING 77
SWIDTH 922 0
DWIDTH 41 0
BBX 33 32 3 0
BITMAP
F800000F80
F800000F80
FC00001F80
FC00001F80
FE00003F80
EE00003B80
EF00007B80
E700007380
E700007380
E38000E380
E38000E380
E3C001E380
E1C001C380
E1E003C380
E0E0038380
E0E0038380
E070070380
E070070380
E0780F0380
E0380E0380
E03C1E0380
E01C1C0380
E01C1C0380
E01E380380
E00E380380
E00F780380
E007700380
E007F00380
E003E00380
E003E00380
E003C00380
E001C00380
ENDCHAR
STARTCHAR 004E
ENCODING 78
SWIDTH 742 0
DWIDTH 33 0
BBX 26 32 3 0
BITMAP
F80001C0
F80001C0
FC0001C0
FE0001C0
FE0001C0
EF0001C0
E78001C0
E38001C0
E3C001C0
E1E001C0
E0F001C0
E0F001C0
E07801C0
E03C01C0
E01C01C0
E01E01C0
E00F01C0
E00781C0
E00781C0
E003C1C0
E001E1C0
E000E1C0
E000F1C0
E00079C0
E00039C0
E0003DC0
E0001FC0
E0000FC0
E0000FC0
E00007C0
E00003C0
E00001C0
ENDCHAR
STARTCHAR 004F
ENCODING 79
SWIDTH 877 0
DWIDTH 39 0
BBX 34 34 2 -1
BITMAP
0007F80000
003FFF0000
00FFFFC000
01F807E000
03C001F800
0780007C00
0F00003C00
1E00001E00
3C00000F00
3800000700
7800000780
7000000380
7000000380
E0000001C0
E0000001C0
E0000001C0
E0000001C0
E0000001C0
E0000001C0
E0000001C0
E0000001C0
7000000380
7000000380
7800000780
3800000700
3C00000F00
1E00001E00
0F00003C00
0780007800
03E001F000
01F807E000
00FFFF8000
003FFF0000
0003F00000
ENDCHAR
STARTCHAR 0050
ENCODING 80
SWIDTH 585 0
DWIDTH 26 0
BBX 21 32 3 0
BITMAP
FFFC00
FFFF80
FFFFC0
E007E0
E001F0
E00070
E00078
E00038
E00038
E00038
E00038
E00038
E00078
E00070
E000F0
E003E0
FFFFC0
FFFF00
FFFC00
E00000
E00000
E00000
E00000
E00000
E00000
E00000
E00000
E00000
E00000
E00000
E00000
E00000
ENDCHAR
STARTCHAR 0051
ENCODING 81
SWIDTH 877 0
DWIDTH 39 0
BBX 34 34 2 -1
BITMAP
0007F80000
003FFF0000
00FFFFC000
01F807F000
07E000F800
0F80007C00
0F00003E00
1E00001E00
3C00000F00
3800000700
7800000780
7000000380
7000000380
E0000001C0
E0000001C0
E0000001C0
E0000001C0
E0000001C0
E0000001C0
E0000001C0
E3FE0001C0
7FFFC00380
7FFFF00380
7C01FC0780
38003E0700
3C000F8F00
1E0007DE00
0F0003FC00
078000FC00
03E001F800
01F807FE00
00FFFFDFC0
003FFF0FC0
0007F803C0
ENDCHAR
STARTCHAR 0052
ENCODING 82
SWIDTH 607 0
DWIDTH 27 0
BBX 22 32 3 0
BITMAP
FFFC00
FFFF80
FFFFC0
E003F0
E000F0
E00078
E00038
E0003C
E0001C
E0001C
E0001C
E0001C
E0001C
E00038
E00078
E000F8
E003F0
E1FFE0
E1FF80
E0FE00
E07800
E03C00
E03C00
E01E00
E00F00
E00780
E00780
E003C0
E001E0
E000F0
E000F0
E00078
ENDCHAR
STARTCHAR 0053
ENCODING 83
SWIDTH 495 0
DWIDTH 22 0
BBX 20 34 1 -1
BITMAP
01F800
07FE00
0FFF00
1E0780
3C03C0
3801C0
7001E0
7000E0
7000E0
700000
700000
780000
3C0000
3F0000
1FC000
0FFC00
03FF00
007F80
000FC0
0003E0
0001E0
0000F0
000070
000070
E00070
E00070
F00070
7000E0
7800E0
3C01C0
3E07C0
1FFF80
07FE00
00F800
ENDCHAR
STARTCHAR 0054
ENCODING 84
SWIDTH 427 0
DWIDTH 19 0
BBX 17 32 1 0
BITMAP
FFFF80
FFFF80
FFFF80
01C000
01C000
01C000
01C000
01C000
01C000
01C000
01C000
01C000
01C000
01C000
01C000
01C000
01C000
01C000
01C000
01C000
01C000
01C000
01C000
01C000
01C000
01C000
01C000
01C000
01C000
01C000
01C000
01C000
ENDCHAR
STARTCHAR 0055
ENCODING 85
SWIDTH 652 0
DWIDTH 29 0
BBX 22 33 3 -1
BITMAP
E0001C
E0001C
E0001C
E0001C
E0001C
E0001C
E0001C
E0001C
E0001C
E0001C
E0001C
E0001C
E0001C
E0001C
E0001C
E0001C
E0001C
E0001C
E0001C
E0001C
E0001C
E0001C
E0001C
E0001C
F0001C
700038
700038
380070
3C00F0
1F03E0
0FFFC0
07FF00
00FC00
ENDCHAR
STARTCHAR 0056
ENCODING 86
SWIDTH 697 0
DWIDTH 31 0
BBX 30 32 0 0
BITMAP
F000003C
70000038
78000078
38000078
3C000070
3C0000F0
1C0000E0
1E0001E0
0E0001C0
0F0001C0
070003C0
07000380
07800780
03800700
03C00700
01C00F00
01C00E00
01E01E00
00E01C00
00F01C00
00703800
00703800
00787800
00387000
003C7000
001CE000
001EE000
000FE000
000FC000
000FC000
00078000
00078000
ENDCHAR
STARTCHAR 0057
ENCODING 87
SWIDTH 967 0
DWIDTH 43 0
BBX 41 32 0 0
BITMAP
F0001C000380
70001E000780
70003E000700
70003E000700
78003E000F00
38003F000E00
380077000E00
3C0077000E00
1C0077001E00
1C00E3801C00
1C00E3801C00
1E00E3803C00
0E00E3C03800
0E01C1C03800
0F01C1C03800
0701C1C07800
0701C1E07000
070380E07000
078380E0F000
038380E0E000
03878070E000
03C70070E000
01C70071E000
01C70079C000
01CE0039C000
01EE0039C000
00EE003B8000
00FE003F8000
00FC001F8000
007C001F0000
007C001F0000
007C000F0000
ENDCHAR
STARTCHAR 0058
ENCODING 88
SWIDTH 607 0
DWIDTH 27 0
BBX 26 32 0 0
BITMAP
78000780
38000700
3C000F00
1E001E00
0E001C00
0F003C00
07807800
03C07000
03C0F000
01E1E000
00F1C000
00F3C000
007F8000
003F0000
003F0000
001E0000
003F0000
003F0000
007F8000
00F3C000
00F3C000
01E1E000
03C0F000
03C0F000
07807800
0F003C00
0F003C00
1E001E00
3C000F00
38000F00
78000780
F00003C0
ENDCHAR
STARTCHAR 0059
ENCODING 89
SWIDTH 585 0
DWIDTH 26 0
BBX 25 32 0 0
BITMAP
F0000380
70000780
78000F00
38000E00
3C001E00
1C001C00
1E003C00
0E003800
0F007800
07007000
0780F000
0380E000
03C1E000
01C1C000
01E3C000
00E38000
00F78000
00770000
003E0000
003E0000
001C0000
001C0000
001C0000
001C0000
001C0000
001C0000
001C0000
001C0000
001C0000
001C0000
001C0000
001C0000
ENDCHAR
STARTCHAR 005A
ENCODING 90
SWIDTH 472 0
DWIDTH 21 0
BBX 20 32 1 0
BITMAP
FFFFF0
FFFFF0
FFFFF0
0000E0
0001E0
0003C0
000380
000780
000700
000F00
001E00
001C00
003C00
007800
007000
00F000
00E000
01E000
03C000
038000
078000
070000
0F0000
1E0000
1C0000
3C0000
380000
780000
F00000
FFFFF0
FFFFF0
FFFFF0
ENDCHAR
STARTCHAR 005B
ENCODING 91
SWIDTH 360 0
DWIDTH 16 0
BBX 8 41 6 -8
BITMAP
01
07
0F
1F
3C
38
70
70
F0
E0
E0
E0
E0
E0
E0
E0
E0
E0
E0
E0
E0
E0
E0
E0
E0
E0
E0
E0
E0
E0
E0
E0
E0
70
70
38
3C
1F
0F
07
01
ENDCHAR
STARTCHAR 005C
ENCODING 92
SWIDTH 607 0
DWIDTH 27 0
BBX 16 37 5 -5
BITMAP
F000
F000
7000
7800
7800
3800
3C00
3C00
1C00
1E00
0E00
0E00
0F00
0700
0700
0780
0380
0380
03C0
01C0
01C0
01E0
00E0
00E0
00F0
0070
0070
0078
0038
0038
003C
001C
001C
001E
000E
000E
000F
ENDCHAR
STARTCHAR 005D
ENCODING 93
SWIDTH 360 0
DWIDTH 16 0
BBX 8 41 1 -8
BITMAP
80
E0
F0
F8
3C
1E
0E
0E
0F
07
07
07
07
07
07
07
07
07
07
07
07
07
07
07
07
07
07
07
07
07
07
07
07
0E
0E
1C
3C
F8
F0
E0
80
ENDCHAR
STARTCHAR 005E
ENCODING 94
SWIDTH 607 0
DWIDTH 27 0
BBX 22 19 2 13
BITMAP
007800
007800
00FC00
00FC00
01CE00
01CE00
038700
038700
070380
070380
0E01C0
0E01C0
1C00E0
1C00E0
380070
380070
700038
700038
E0001C
ENDCHAR
STARTCHAR 005F
ENCODING 95
SWIDTH 495 0
DWIDTH 22 0
BBX 22 3 0 -6
BITMAP
FFFFFC
FFFFFC
FFFFFC
ENDCHAR
STARTCHAR 0060
ENCODING 96
SWIDTH 382 0
DWIDTH 17 0
BBX 10 7 3 27
BITMAP
4000
7000
FC00
3F00
0FC0
03C0
0080
ENDCHAR
STARTCHAR 0061
ENCODING 97
SWIDTH 675 0
DWIDTH 30 0
BBX 25 26 2 -1
BITMAP
003F0000
01FFC380
07FFF380
0FC0FB80
1E003F80
3C001F80
38000F80
78000F80
70000780
70000780
E0000380
E0000380
E0000380
E0000380
E0000380
E0000380
70000780
70000780
78000780
38000F80
3C001F80
1F003F80
0FC0FB80
07FFF380
01FFC380
003E0000
ENDCHAR
STARTCHAR 0062
ENCODING 98
SWIDTH 675 0
DWIDTH 30 0
BBX 25 33 3 -1
BITMAP
E0000000
E0000000
E0000000
E0000000
E0000000
E0000000
E0000000
E03E0000
E1FFC000
E3FFF000
EF81F800
EE003C00
FC001E00
F8000E00
F8000F00
F0000700
F0000780
E0000380
E0000380
E0000380
E0000380
E0000380
E0000380
F0000380
F0000700
F8000700
F8000E00
FC001E00
FE003C00
EF80F800
E7FFF000
E1FFC000
003E0000
ENDCHAR
STARTCHAR 0063
ENCODING 99
SWIDTH 652 0
DWIDTH 29 0
BBX 24 26 2 -1
BITMAP
003F00
01FFE0
07FFF0
0FC0FC
1F003C
3C001E
38000F
780007
700000
700000
E00000
E00000
E00000
E00000
E00000
E00000
F00000
700000
780007
38000F
3C001E
1F003C
0FC0F8
07FFF0
01FFE0
003F00
ENDCHAR
STARTCHAR 0064
ENCODING 100
SWIDTH 675 0
DWIDTH 30 0
BBX 25 33 2 -1
BITMAP
00000380
00000380
00000380
00000380
00000380
00000380
00000380
003F0380
01FFC380
07FFF380
0FC0FB80
1E003F80
3C001F80
38000F80
78000F80
70000780
70000780
E0000380
E0000380
E0000380
E0000380
E0000380
E0000380
70000780
70000780
78000780
38000F80
3C001F80
1F003F80
0FC0FB80
07FFF380
01FFC380
003E0000
ENDCHAR
STARTCHAR 0065
ENCODING 101
SWIDTH 652 0
DWIDTH 29 0
BBX 25 26 2 -1
BITMAP
007E0000
01FFC000
07FFE000
0F81F800
1E007800
3C003C00
38001E00
70000E00
70000700
60000700
E0000700
FFFFFF00
FFFFFF80
FFFFFF80
E0000000
E0000000
60000000
70000F00
70000E00
38001E00
3C003C00
1E007800
0F81F000
07FFE000
01FFC000
007E0000
ENDCHAR
STARTCHAR 0066
ENCODING 102
SWIDTH 315 0
DWIDTH 14 0
BBX 13 33 1 0
BITMAP
0078
01F8
03F8
07C0
0700
0F00
0E00
0E00
0E00
FFF8
FFF8
FFF8
0E00
0E00
0E00
0E00
0E00
0E00
0E00
0E00
0E00
0E00
0E00
0E00
0E00
0E00
0E00
0E00
0E00
0E00
0E00
0E00
0E00
ENDCHAR
STARTCHAR 0067
ENCODING 103
SWIDTH 675 0
DWIDTH 30 0
BBX 24 35 2 -10
BITMAP
007E00
01FF87
07FFE7
0F81F7
1E007F
3C003F
38001F
78001F
70000F
70000F
E00007
E00007
E00007
E00007
E00007
E00007
F0000F
70000F
78000F
38001F
3C003F
1E007F
0F81F7
07FFE7
01FF87
007E07
700007
78000E
3C000E
3C001E
1F003C
0FC0F8
07FFF0
01FFE0
003F00
ENDCHAR
STARTCHAR 0068
ENCODING 104
SWIDTH 607 0
DWIDTH 27 0
BBX 21 32 3 0
BITMAP
E00000
E00000
E00000
E00000
E00000
E00000
E00000
E0FC00
E3FF00
EFFF80
FF07C0
FC01E0
F800F0
F00070
F00078
E00038
E00038
E00038
E00038
E00038
E00038
E00038
E00038
E00038
E00038
E00038
E00038
E00038
E00038
E00038
E00038
E00038
ENDCHAR
STARTCHAR 0069
ENCODING 105
SWIDTH 202 0
DWIDTH 9 0
BBX 3 32 3 0
BITMAP
E0
E0
E0
E0
E0
E0
00
00
E0
E0
E0
E0
E0
E0
E0
E0
E0
E0
E0
E0
E0
E0
E0
E0
E0
E0
E0
E0
E0
E0
E0
E0
ENDCHAR
STARTCHAR 006A
ENCODING 106
SWIDTH 202 0
DWIDTH 9 0
BBX 8 40 -2 -8
BITMAP
07
07
07
07
07
07
00
00
07
07
07
07
07
07
07
07
07
07
07
07
07
07
07
07
07
07
07
07
07
07
07
07
07
07
0F
0E
1E
FC
F8
E0
ENDCHAR
STARTCHAR 006B
ENCODING 107
SWIDTH 495 0
DWIDTH 22 0
BBX 18 32 3 0
BITMAP
E00000
E00000
E00000
E00000
E00000
E00000
E00000
E00000
E003C0
E00780
E00F00
E00E00
E01E00
E03C00
E07800
E07000
E0F000
E1E000
E3C000
E78000
E78000
EFC000
FFE000
FCF000
F8F000
F07800
F03C00
E01E00
E00F00
E00780
E00780
E003C0
ENDCHAR
STARTCHAR 006C
ENCODING 108
SWIDTH 202 0
DWIDTH 9 0
BBX 3 32 3 0
BITMAP
E0
E0
E0
E0
E0
E0
E0
E0
E0
E0
E0
E0
E0
E0
E0
E0
E0
E0
E0
E0
E0
E0
E0
E0
E0
E0
E0
E0
E0
E0
E0
E0
ENDCHAR
STARTCHAR 006D
ENCODING 109
SWIDTH 945 0
DWIDTH 42 0
BBX 35 25 3 0
BITMAP
01F001F000
E7FC07FE00
EFFF1FFF00
FE0FBE0F80
F803B803C0
F001F001C0
F001F001C0
E000E000E0
E000E000E0
E000E000E0
E000E000E0
E000E000E0
E000E000E0
E000E000E0
E000E000E0
E000E000E0
E000E000E0
E000E000E0
E000E000E0
E000E000E0
E000E000E0
E000E000E0
E000E000E0
E000E000E0
E000E000E0
ENDCHAR
STARTCHAR 006E
ENCODING 110
SWIDTH 607 0
DWIDTH 27 0
BBX 21 25 3 0
BITMAP
00FC00
E3FF00
EFFF80
FF07C0
FC01E0
F800F0
F00070
F00078
E00038
E00038
E00038
E00038
E00038
E00038
E00038
E00038
E00038
E00038
E00038
E00038
E00038
E00038
E00038
E00038
E00038
ENDCHAR
STARTCHAR 006F
ENCODING 111
SWIDTH 652 0
DWIDTH 29 0
BBX 25 26 2 -1
BITMAP
003E0000
01FFC000
07FFF000
0FC1F800
1F007C00
3C001E00
38000E00
78000F00
70000700
70000780
E0000380
E0000380
E0000380
E0000380
E0000380
E0000380
F0000780
70000700
78000700
38000E00
3C001E00
1F003C00
0FC1F800
07FFF000
01FFC000
003E0000
ENDCHAR
STARTCHAR 0070
ENCODING 112
SWIDTH 675 0
DWIDTH 30 0
BBX 25 33 3 -8
BITMAP
003E0000
E1FFC000
E3FFF000
EF81F800
EE003C00
FC001E00
F8000E00
F8000F00
F0000700
F0000780
E0000380
E0000380
E0000380
E0000380
E0000380
E0000380
F0000380
F0000700
F8000700
F8000E00
FC001E00
FE003C00
EF80F800
E7FFF000
E1FFC000
E03E0000
E0000000
E0000000
E0000000
E0000000
E0000000
E0000000
E0000000
ENDCHAR
STARTCHAR 0071
ENCODING 113
SWIDTH 675 0
DWIDTH 30 0
BBX 25 33 2 -8
BITMAP
003F0000
01FFC380
07FFF380
0FC0FB80
1E003F80
3C001F80
38000F80
78000F80
70000780
70000780
E0000380
E0000380
E0000380
E0000380
E0000380
E0000380
70000780
70000780
78000780
38000F80
3C001F80
1F003F80
0FC0FB80
07FFF380
01FFC380
003E0380
00000380
00000380
00000380
00000380
00000380
00000380
00000380
ENDCHAR
STARTCHAR 0072
ENCODING 114
SWIDTH 292 0
DWIDTH 13 0
BBX 10 24 3 0
BITMAP
E3C0
E7C0
EFC0
FE00
F800
F000
F000
E000
E000
E000
E000
E000
E000
E000
E000
E000
E000
E000
E000
E000
E000
E000
E000
E000
ENDCHAR
STARTCHAR 0073
ENCODING 115
SWIDTH 382 0
DWIDTH 17 0
BBX 15 26 1 -1
BITMAP
0380
0FF0
1FF8
3C78
783C
701C
701C
7000
7800
7C00
3F00
1FC0
0FF0
01F8
007C
001E
001E
000E
E00E
E00E
F00E
701C
783C
3FF8
1FF0
03C0
ENDCHAR
STARTCHAR 0074
ENCODING 116
SWIDTH 337 0
DWIDTH 15 0
BBX 14 32 1 0
BITMAP
0700
0700
0700
0700
0700
0700
0700
0700
FFFC
FFFC
FFFC
0700
0700
0700
0700
0700
0700
0700
0700
0700
0700
0700
0700
0700
0700
0700
0700
0700
0700
0700
0700
0700
ENDCHAR
STARTCHAR 0075
ENCODING 117
SWIDTH 607 0
DWIDTH 27 0
BBX 21 25 3 -1
BITMAP
E00038
E00038
E00038
E00038
E00038
E00038
E00038
E00038
E00038
E00038
E00038
E00038
E00038
E00038
E00038
E00038
E00038
F00078
700078
7800F8
3C01F8
3E07B8
1FFFB8
07FE38
01F800
ENDCHAR
STARTCHAR 0076
ENCODING 118
SWIDTH 562 0
DWIDTH 25 0
BBX 23 24 0 0
BITMAP
E0000E
E0001C
70001C
70003C
780038
380078
3C0070
1C0070
1C00E0
1E00E0
0E01E0
0F01C0
0703C0
070380
038380
038700
03C700
01CF00
01EE00
00FE00
00FC00
007C00
007C00
007800
ENDCHAR
STARTCHAR 0077
ENCODING 119
SWIDTH 832 0
DWIDTH 37 0
BBX 35 24 1 0
BITMAP
E0000000E0
F0000001C0
70000001C0
7000E001C0
3800E00380
3801F00380
3801F00780
1C01F00700
1C03B80700
1E03B80E00
0E03B80E00
0E07380E00
07071C1C00
07071C1C00
070E1C3800
038E0E3800
038E0E3800
03DC0E7000
01DC077000
01DC077000
00F807E000
00F803E000
00F803C000
007803C000
ENDCHAR
STARTCHAR 0078
ENCODING 120
SWIDTH 472 0
DWIDTH 21 0
BBX 20 24 1 0
BITMAP
F000F0
7801E0
3801C0
3C03C0
1E0780
0E0700
070E00
079E00
03DC00
01F800
01F800
00F000
00F000
01F800
03FC00
039C00
079E00
0F0F00
0E0700
1E0780
3C03C0
3801C0
7801E0
F000F0
ENDCHAR
STARTCHAR 0079
ENCODING 121
SWIDTH 540 0
DWIDTH 24 0
BBX 22 32 1 -8
BITMAP
E0001C
700038
700038
780078
380070
3800F0
1C00E0
1C00E0
1E01C0
0E01C0
0E0380
070380
070780
078700
038700
038E00
01CE00
01DC00
01FC00
00FC00
00F800
007800
007000
007000
006000
00E000
00E000
01C000
01C000
038000
038000
070000
ENDCHAR
STARTCHAR 007A
ENCODING 122
SWIDTH 427 0
DWIDTH 19 0
BBX 18 24 0 0
BITMAP
FFFF80
FFFF80
FFFF80
000780
000F00
001E00
001C00
003C00
007800
007000
00F000
01E000
03C000
038000
078000
0F0000
0E0000
1E0000
3C0000
780000
700000
FFFFC0
FFFFC0
FFFFC0
ENDCHAR
STARTCHAR 007B
ENCODING 123
SWIDTH 360 0
DWIDTH 16 0
BBX 11 40 3 -8
BITMAP
01E0
07E0
07E0
0F00
0E00
0E00
0E00
0E00
0E00
0E00
0E00
0E00
0E00
0E00
0E00
0E00
1E00
3C00
F800
F000
F800
7C00
1C00
1E00
0E00
0E00
0E00
0E00
0E00
0E00
0E00
0E00
0E00
0E00
0E00
0E00
0F00
07E0
07E0
03E0
ENDCHAR
STARTCHAR 007C
ENCODING 124
SWIDTH 675 0
DWIDTH 30 0
BBX 3 44 13 -10
BITMAP
E0
E0
E0
E0
E0
E0
E0
E0
E0
E0
E0
E0
E0
E0
E0
E0
E0
E0
E0
E0
E0
E0
E0
E0
E0
E0
E0
E0
E0
E0
E0
E0
E0
E0
E0
E0
E0
E0
E0
E0
E0
E0
E0
E0
ENDCHAR
STARTCHAR 007D
ENCODING 125
SWIDTH 360 0
DWIDTH 16 0
BBX 11 40 1 -8
BITMAP
F800
FC00
FC00
1E00
0E00
0E00
0E00
0E00
0E00
0E00
0E00
0E00
0E00
0E00
0E00
0E00
0F00
0780
03E0
01E0
01E0
07C0
0700
0F00
0E00
0E00
0E00
0E00
0E00
0E00
0E00
0E00
0E00
0E00
0E00
0E00
1E00
FC00
FC00
F000
ENDCHAR
STARTCHAR 007E
ENCODING 126
SWIDTH 607 0
DWIDTH 27 0
BBX 20 6 3 8
BITMAP
1F0020
3FE030
7FF870
E0FFE0
C03FC0
400F80
ENDCHAR
STARTCHAR 00A0
ENCODING 160
SWIDTH 270 0
DWIDTH 12 0
BBX 0 0 0 0
BITMAP
ENDCHAR
STARTCHAR 00A3
ENCODING 163
SWIDTH 562 0
DWIDTH 25 0
BBX 24 33 0 0
BITMAP
007E00
01FF80
07FFE0
0F81F0
0E00F8
1E0078
1C003C
3C001C
38001C
380000
380000
380000
380000
380000
1C0000
FFFFE0
FFFFE0
FFFFE0
078000
03C000
01E000
00E007
00F007
007007
007007
007007
00700F
00700E
00E01E
00E07C
7FFFF8
7FFFF0
7FFF80
ENDCHAR
STARTCHAR 00A4
ENCODING 164
SWIDTH 562 0
DWIDTH 25 0
BBX 23 23 1 2
BITMAP
400004
E0000E
707C1C
39FF38
1FFFF0
0F83E0
0E00E0
1C0070
1C0070
380038
380038
380038
380038
380038
1C0070
1E0070
0E00E0
1F83F0
3FFFF8
79FF3C
F07C1E
E0000E
400004
ENDCHAR
STARTCHAR 00A6
ENCODING 166
SWIDTH 675 0
DWIDTH 30 0
BBX 3 37 13 -6
BITMAP
E0
E0
E0
E0
E0
E0
E0
E0
E0
E0
E0
E0
E0
E0
E0
00
00
00
00
00
00
00
E0
E0
E0
E0
E0
E0
E0
E0
E0
E0
E0
E0
E0
E0
E0
ENDCHAR
STARTCHAR 00A7
ENCODING 167
SWIDTH 607 0
DWIDTH 27 0
BBX 19 39 4 -6
BITMAP
01F800
07FE00
0FFF00
1E0F00
3C0780
380380
380000
380000
380000
3C0000
1E0000
1F8000
3FE000
3BF800
70FE00
E03F80
E00FC0
E003C0
E001E0
F000E0
7800E0
3E00E0
1F80E0
0FE1C0
03FBC0
00FF80
003F00
000F80
000380
0003C0
7001C0
7001C0
7001C0
3801C0
3C0380
1E0780
1FFF00
07FE00
01F800
ENDCHAR
STARTCHAR 00A8
ENCODING 168
SWIDTH 360 0
DWIDTH 16 0
BBX 10 6 3 28
BITMAP
E1C0
E1C0
E1C0
E1C0
E1C0
E1C0
ENDCHAR
STARTCHAR 00A9
ENCODING 169
SWIDTH 742 0
DWIDTH 33 0
BBX 33 35 0 -1
BITMAP
0007F00000
003FFE0000
00FFFF8000
01F80FC000
07C001E000
0F0000F000
0E00003800
1C03E01C00
380FF80E00
303FFE0E00
70781F0700
6070070700
60E0038300
E0C0038380
C1C0000180
C180000180
C180000180
C180000180
C180000180
C180000180
C1C0000180
E0C0038380
60E0038300
60F0070300
70780F0700
303FFE0600
381FF80E00
1C03E01C00
1E00003800
0F00007000
07C001E000
03F80FC000
00FFFF8000
003FFE0000
0007E00000
ENDCHAR
STARTCHAR 00AB
ENCODING 171
SWIDTH 427 0
DWIDTH 19 0
BBX 15 18 2 4
BITMAP
0408
0E0E
0E1C
1C1C
3C38
3878
7870
70F0
F0E0
F0E0
70F0
7870
3878
3C38
1C1C
0E1C
0E0E
0408
ENDCHAR
STARTCHAR 00AC
ENCODING 172
SWIDTH 607 0
DWIDTH 27 0
BBX 22 12 2 4
BITMAP
FFFFFC
FFFFFC
FFFFFC
00001C
00001C
00001C
00001C
00001C
00001C
00001C
00001C
00001C
ENDCHAR
STARTCHAR 00AD
ENCODING 173
SWIDTH 337 0
DWIDTH 15 0
BBX 12 3 1 11
BITMAP
FFF0
FFF0
FFF0
ENDCHAR
STARTCHAR 00AE
ENCODING 174
SWIDTH 742 0
DWIDTH 33 0
BBX 33 35 0 -1
BITMAP
0007F00000
003FFE0000
00FFFF8000
01F80FC000
07C001F000
0F00007800
0E00003C00
1C00001C00
387FF80E00
307FFC0600
707FFE0700
6060070300
E060030300
C060030380
C060030180
C0600F0180
C07FFE0180
C07FF80180
C07FFE0180
C0600E0180
C060070380
E060030300
6060030300
7060030700
7060030600
3860030E00
3860030C00
1C00001C00
0E00003800
078000F000
03C001E000
01F80FC000
00FFFF8000
003FFE0000
0007E00000
ENDCHAR
STARTCHAR 00B0
ENCODING 176
SWIDTH 405 0
DWIDTH 18 0
BBX 12 14 3 18
BITMAP
0F00
3FC0
7FE0
70E0
E070
C030
C030
C030
C030
E070
70E0
7FE0
3FC0
0F00
ENDCHAR
STARTCHAR 00B1
ENCODING 177
SWIDTH 607 0
DWIDTH 27 0
BBX 23 24 2 -1
BITMAP
003800
003800
003800
003800
003800
003800
003800
003800
FFFFFE
FFFFFE
FFFFFE
003800
003800
003800
003800
003800
003800
003800
003800
000000
000000
FFFFFE
FFFFFE
FFFFFE
ENDCHAR
STARTCHAR 00B4
ENCODING 180
SWIDTH 382 0
DWIDTH 17 0
BBX 10 7 3 28
BITMAP
0180
07C0
0FC0
3F00
FC00
7000
4000
ENDCHAR
STARTCHAR 00B5
ENCODING 181
SWIDTH 607 0
DWIDTH 27 0
BBX 20 32 3 -9
BITMAP
E00070
E00070
E00070
E00070
E00070
E00070
E00070
E00070
E00070
E00070
E00070
E00070
E00070
E00070
E00070
E00070
E00070
F000F0
F000F0
F801F0
FC03F0
FF07F0
EFFF70
E7FE70
E1F000
E00000
E00000
E00000
E00000
E00000
E00000
E00000
ENDCHAR
STARTCHAR 00B6
ENCODING 182
SWIDTH 562 0
DWIDTH 25 0
BBX 24 37 1 -6
BITMAP
01FFFF
0FFFFF
1FF838
3FF838
7FF838
7FF838
7FF838
FFF838
FFF838
FFF838
7FF838
7FF838
7FF838
3FF838
1FF838
0FF838
07F838
003838
003838
003838
003838
003838
003838
003838
003838
003838
003838
003838
003838
003838
003838
003838
003838
003838
003838
003838
003838
ENDCHAR
STARTCHAR 00B7
ENCODING 183
SWIDTH 270 0
DWIDTH 12 0
BBX 3 6 4 8
BITMAP
E0
E0
E0
E0
E0
E0
ENDCHAR
STARTCHAR 00B8
ENCODING 184
SWIDTH 315 0
DWIDTH 14 0
BBX 8 10 3 -10
BITMAP
10
30
30
7E
23
03
C3
63
7E
1C
ENDCHAR
STARTCHAR 00BB
ENCODING 187
SWIDTH 427 0
DWIDTH 19 0
BBX 15 18 2 4
BITMAP
2040
E0E0
70E0
7070
3878
3C38
1C3C
1E1C
0E1E
0E1E
1E1C
1C3C
3C38
3878
7070
70E0
E0E0
2040
ENDCHAR
STARTCHAR 00C1
ENCODING 193
SWIDTH 742 0
DWIDTH 33 0
BBX 31 41 1 1
BITMAP
00003000
0000F000
0001F800
0007E000
001F8000
001E0000
00080000
00000000
00000000
00078000
0007C000
0007C000
000FE000
000EE000
001EF000
001C7000
003C7000
00383800
00383800
00783C00
00701C00
00F01E00
00E00E00
01E00E00
01C00F00
01C00700
03800780
03FFFF80
07FFFFC0
07FFFFC0
0F0001C0
0E0001E0
0E0000E0
1E0000F0
1C000070
3C000078
38000038
3800003C
7000003C
7000001C
F000001E
ENDCHAR
STARTCHAR 00C2
ENCODING 194
SWIDTH 742 0
DWIDTH 33 0
BBX 31 40 1 0
BITMAP
0007C000
000FE000
001EF000
003C7800
00F01E00
00000000
00000000
00000000
00078000
0007C000
0007C000
000FE000
000EE000
001EF000
001C7000
003C7000
00383800
00383800
00783C00
00701C00
00F01E00
00E00E00
01E00E00
01C00F00
01C00700
03C00780
03FFFF80
07FFFFC0
07FFFFC0
0F0001C0
0E0001E0
0E0000E0
1E0000F0
1C000070
3C000078
38000038
3800003C
7000003C
7000001C
F000001E
ENDCHAR
STARTCHAR 00C4
ENCODING 196
SWIDTH 742 0
DWIDTH 33 0
BBX 32 41 0 0
BITMAP
001C3800
001C3800
001C3800
001C3800
001C3800
001C3800
00000000
00000000
00000000
0003C000
0007E000
0007E000
000FF000
000FF000
001E7800
001E7800
001C3800
003C3C00
00381C00
00781E00
00701E00
00700E00
00F00F00
00E00700
01E00780
01C00380
03C003C0
03FFFFC0
03FFFFC0
07FFFFE0
070000E0
0F0000F0
0E000070
1E000078
1C000078
1C000038
3C00003C
3800001C
7800001E
7000000E
F000000F
ENDCHAR
STARTCHAR 00C7
ENCODING 199
SWIDTH 810 0
DWIDTH 36 0
BBX 32 43 2 -10
BITMAP
0003F800
003FFF00
00FFFFC0
01F807E0
03E001F0
0780007C
0F00003C
1E00001E
3C00000F
38000000
78000000
70000000
70000000
F0000000
E0000000
E0000000
E0000000
E0000000
E0000000
E0000000
F0000000
70000000
70000000
78000000
38000000
3C00000F
1E00001E
0F00003C
07800078
03E001F0
01FC07E0
00FFFFC0
003FFF00
0003F000
00018000
00030000
0003F000
00003800
00001800
00061800
00073800
0003F000
0001C000
ENDCHAR
STARTCHAR 00C9
ENCODING 201
SWIDTH 540 0
DWIDTH 24 0
BBX 17 41 3 1
BITMAP
001800
007800
01FC00
03F000
0FC000
0F0000
040000
000000
000000
FFFF80
FFFF80
FFFF80
E00000
E00000
E00000
E00000
E00000
E00000
E00000
E00000
E00000
E00000
E00000
FFFF80
FFFF80
FFFF80
E00000
E00000
E00000
E00000
E00000
E00000
E00000
E00000
E00000
E00000
E00000
E00000
FFFF80
FFFF80
FFFF80
ENDCHAR
STARTCHAR 00CB
ENCODING 203
SWIDTH 540 0
DWIDTH 24 0
BBX 17 41 3 0
BITMAP
0E3800
0E3800
0E3800
0E3800
0E3800
0E3800
000000
000000
000000
FFFF80
FFFF80
FFFF80
E00000
E00000
E00000
E00000
E00000
E00000
E00000
E00000
E00000
E00000
E00000
FFFF80
FFFF80
FFFF80
E00000
E00000
E00000
E00000
E00000
E00000
E00000
E00000
E00000
E00000
E00000
E00000
FFFF80
FFFF80
FFFF80
ENDCHAR
STARTCHAR 00CD
ENCODING 205
SWIDTH 225 0
DWIDTH 10 0
BBX 9 41 2 1
BITMAP
0100
0780
1F80
3F00
FC00
F000
4000
0000
0000
7000
7000
7000
7000
7000
7000
7000
7000
7000
7000
7000
7000
7000
7000
7000
7000
7000
7000
7000
7000
7000
7000
7000
7000
7000
7000
7000
7000
7000
7000
7000
7000
ENDCHAR
STARTCHAR 00CE
ENCODING 206
SWIDTH 225 0
DWIDTH 10 0
BBX 13 40 -2 0
BITMAP
0780
1FC0
3DE0
78F0
E038
0000
0000
0000
0700
0700
0700
0700
0700
0700
0700
0700
0700
0700
0700
0700
0700
0700
0700
0700
0700
0700
0700
0700
0700
0700
0700
0700
0700
0700
0700
0700
0700
0700
0700
0700
ENDCHAR
STARTCHAR 00D3
ENCODING 211
SWIDTH 877 0
DWIDTH 39 0
BBX 34 42 2 0
BITMAP
0000060000
00001F0000
00007E0000
0001F80000
0003F00000
0001C00000
0001000000
0000000000
0007F80000
003FFF0000
00FFFFC000
01F807E000
03C001F800
0780007C00
0F00003C00
1E00001E00
3C00000F00
3800000700
7800000780
7000000380
7000000380
E0000001C0
E0000001C0
E0000001C0
E0000001C0
E0000001C0
E0000001C0
E0000001C0
E0000001C0
7000000380
7000000380
7800000780
3800000700
3C00000F00
1E00001E00
0F00003C00
0780007800
03E001F000
01F807E000
00FFFF8000
003FFF0000
0003F00000
ENDCHAR
STARTCHAR 00D4
ENCODING 212
SWIDTH 877 0
DWIDTH 39 0
BBX 34 41 2 -1
BITMAP
0001E00000
0003F00000
000FBC0000
001E1E0000
003C0F0000
0000000000
0000000000
0007F80000
003FFF0000
00FFFFC000
01F807E000
03C001F800
0780007C00
0F00003C00
1E00001E00
3C00000F00
3800000700
7800000780
7000000380
7000000380
E0000001C0
E0000001C0
E0000001C0
E0000001C0
E0000001C0
E0000001C0
E0000001C0
E0000001C0
7000000380
7000000380
7800000780
3800000700
3C00000F00
1E00001E00
0F00003C00
0780007800
03E001F000
01F807E000
00FFFF8000
003FFF0000
0003F00000
ENDCHAR
STARTCHAR 00D5
ENCODING 213
SWIDTH 877 0
DWIDTH 39 0
BBX 34 42 2 -1
BITMAP
000F000000
003FC30000
003FFF0000
0030FF0000
00003C0000
0000000000
0000000000
0000000000
0007F80000
003FFF0000
00FFFFC000
01F807E000
03C001F800
0780007C00
0F00003C00
1E00001E00
3C00000F00
3800000700
7800000780
7000000380
7000000380
E0000001C0
E0000001C0
E0000001C0
E0000001C0
E0000001C0
E0000001C0
E0000001C0
E0000001C0
7000000380
7000000380
7800000780
3800000700
3C00000F00
1E00001E00
0F00003C00
0780007800
03E001F000
01F807E000
00FFFF8000
003FFF0000
0003F00000
ENDCHAR
STARTCHAR 00D6
ENCODING 214
SWIDTH 877 0
DWIDTH 39 0
BBX 34 42 2 -1
BITMAP
000E1C0000
000E1C0000
000E1C0000
000E1C0000
000E1C0000
000E1C0000
0000000000
0000000000
0007F80000
003FFF0000
00FFFFC000
01F807E000
03C001F800
0780007C00
0F00003C00
1E00001E00
3C00000F00
3800000700
7800000780
7000000380
7000000380
E0000001C0
E0000001C0
E0000001C0
E0000001C0
E0000001C0
E0000001C0
E0000001C0
E0000001C0
7000000380
7000000380
7800000780
3800000700
3C00000F00
1E00001E00
0F00003C00
0780007800
03E001F000
01F807E000
00FFFF8000
003FFF0000
0003F00000
ENDCHAR
STARTCHAR 00D7
ENCODING 215
SWIDTH 607 0
DWIDTH 27 0
BBX 20 20 3 1
BITMAP
200040
7000E0
F801F0
7C03E0
3E07C0
1F0F80
0F9F00
07FE00
03FC00
01F800
01F800
03FC00
07FE00
0F9F00
1F0F80
3E07C0
7C03E0
F801F0
7000E0
200040
ENDCHAR
STARTCHAR 00DA
ENCODING 218
SWIDTH 652 0
DWIDTH 29 0
BBX 22 42 3 0
BITMAP
000100
000780
001F80
007E00
01FC00
00F000
00C000
000000
000000
E0001C
E0001C
E0001C
E0001C
E0001C
E0001C
E0001C
E0001C
E0001C
E0001C
E0001C
E0001C
E0001C
E0001C
E0001C
E0001C
E0001C
E0001C
E0001C
E0001C
E0001C
E0001C
E0001C
E0001C
F0001C
700038
700038
380070
3C00F0
1F03E0
0FFFC0
07FF00
00FC00
ENDCHAR
STARTCHAR 00DC
ENCODING 220
SWIDTH 652 0
DWIDTH 29 0
BBX 22 42 3 -1
BITMAP
038700
038700
038700
038700
038700
038700
000000
000000
000000
E0001C
E0001C
E0001C
E0001C
E0001C
E0001C
E0001C
E0001C
E0001C
E0001C
E0001C
E0001C
E0001C
E0001C
E0001C
E0001C
E0001C
E0001C
E0001C
E0001C
E0001C
E0001C
E0001C
E0001C
F0001C
700038
700038
380070
3C00F0
1F03E0
0FFFC0
07FF00
00FC00
ENDCHAR
STARTCHAR 00DD
ENCODING 221
SWIDTH 585 0
DWIDTH 26 0
BBX 25 41 0 1
BITMAP
0000C000
0003C000
0007E000
001F8000
007E0000
00780000
00200000
00000000
00000000
F0000380
70000780
78000700
38000E00
3C001E00
1C001C00
1E003C00
0E003800
0F007800
07007000
0780F000
0380E000
03C1E000
01C1C000
01E3C000
00E38000
00F78000
00770000
007E0000
003E0000
001C0000
001C0000
001C0000
001C0000
001C0000
001C0000
001C0000
001C0000
001C0000
001C0000
001C0000
001C0000
ENDCHAR
STARTCHAR 00DF
ENCODING 223
SWIDTH 562 0
DWIDTH 25 0
BBX 20 34 3 -1
BITMAP
03F000
0FFC00
1FFE00
3C0F00
780780
700380
7001C0
E001C0
E001C0
E001C0
E001C0
E001C0
E00380
E00780
E01F00
E1FE00
E1FF00
E1FF80
E007C0
E001E0
E000E0
E000F0
E00070
E00070
F80070
F80070
FC0070
FC00F0
FE00E0
EF01E0
EF87C0
E7FF80
E3FF00
007800
ENDCHAR
STARTCHAR 00E1
ENCODING 225
SWIDTH 675 0
DWIDTH 30 0
BBX 25 36 2 -1
BITMAP
00008000
00018000
0007C000
001F8000
007E0000
00F80000
00700000
00000000
00000000
00000000
003F0000
01FFC380
07FFF380
0FC0FB80
1E003F80
3C001F80
38000F80
78000F80
70000780
70000780
E0000380
E0000380
E0000380
E0000380
E0000380
E0000380
70000780
70000780
78000780
38000F80
3C001F80
1F003F80
0FC0FB80
07FFF380
01FFC380
003E0000
ENDCHAR
STARTCHAR 00E2
ENCODING 226
SWIDTH 675 0
DWIDTH 30 0
BBX 25 34 2 -1
BITMAP
001E0000
003F0000
00F3C000
01E1E000
03C0F000
00000000
00000000
00000000
003F0000
01FFC380
07FFF380
0FC0FB80
1E003F80
3C001F80
38000F80
78000F80
70000780
70000780
E0000380
E0000380
E0000380
E0000380
E0000380
E0000380
70000780
70000780
78000780
38000F80
3C001F80
1F003F80
0FC0FB80
07FFF380
01FFC380
003E0000
ENDCHAR
STARTCHAR 00E4
ENCODING 228
SWIDTH 675 0
DWIDTH 30 0
BBX 25 35 2 -1
BITMAP
00E38000
00E38000
00E38000
00E38000
00E38000
00E38000
00000000
00000000
00000000
007E0000
01FFC380
07FFF380
0F81FB80
1E007F80
3C001F80
38000F80
70000F80
70000780
F0000780
E0000380
E0000380
E0000380
E0000380
E0000380
E0000380
F0000780
70000780
70000780
38000F80
3C001F80
1E003F80
0F81FB80
07FFF380
01FFC380
007E0000
ENDCHAR
STARTCHAR 00E7
ENCODING 231
SWIDTH 652 0
DWIDTH 29 0
BBX 25 35 2 -10
BITMAP
003F0000
01FFE000
03FFF000
0FC0FC00
1F003E00
1C001E00
38000F00
78000780
70000000
70000000
E0000000
E0000000
E0000000
E0000000
E0000000
E0000000
F0000000
70000000
78000780
38000700
3C000E00
1F003E00
0FC0FC00
07FFF800
01FFE000
003F0000
00180000
00300000
003F0000
00038000
00018000
00618000
00738000
003F0000
001E0000
ENDCHAR
STARTCHAR 00E9
ENCODING 233
SWIDTH 652 0
DWIDTH 29 0
BBX 25 35 2 0
BITMAP
00038000
000F8000
003F0000
00FE0000
00F80000
00E00000
00000000
00000000
00000000
007E0000
01FFC000
07FFE000
0F81F800
1E007800
3C003C00
38001E00
70000E00
70000700
60000700
E0000700
FFFFFF00
FFFFFF80
FFFFFF80
E0000000
E0000000
60000000
70000F00
70000E00
38001E00
3C003C00
1E007800
0F81F000
07FFE000
01FFC000
007E0000
ENDCHAR
STARTCHAR 00EB
ENCODING 235
SWIDTH 652 0
DWIDTH 29 0
BBX 25 35 2 -1
BITMAP
01C38000
01C38000
01C38000
01C38000
01C38000
01C38000
00000000
00000000
00000000
007E0000
01FFC000
07FFE000
0F81F000
1E007800
3C003C00
38001E00
70000E00
70000700
E0000700
E0000700
FFFFFF00
FFFFFF80
FFFFFF80
E0000000
E0000000
E0000000
70000F00
70000E00
38001E00
3C003C00
1E007800
0F81F000
07FFE000
01FF8000
007E0000
ENDCHAR
STARTCHAR 00ED
ENCODING 237
SWIDTH 202 0
DWIDTH 9 0
BBX 9 34 2 1
BITMAP
0380
0780
1F80
7E00
F800
E000
4000
0000
0000
0000
7000
7000
7000
7000
7000
7000
7000
7000
7000
7000
7000
7000
7000
7000
7000
7000
7000
7000
7000
7000
7000
7000
7000
7000
ENDCHAR
STARTCHAR 00EE
ENCODING 238
SWIDTH 202 0
DWIDTH 9 0
BBX 15 33 -3 0
BITMAP
07C0
0FE0
1EF0
3C78
F01E
0000
0000
0000
0000
0380
0380
0380
0380
0380
0380
0380
0380
0380
0380
0380
0380
0380
0380
0380
0380
0380
0380
0380
0380
0380
0380
0380
0380
ENDCHAR
STARTCHAR 00F3
ENCODING 243
SWIDTH 652 0
DWIDTH 29 0
BBX 25 36 2 -1
BITMAP
00004000
0001C000
0003E000
000FC000
003F0000
007C0000
00300000
00200000
00000000
00000000
003E0000
01FFC000
07FFF000
0FC1F800
1F007C00
3C001E00
38000E00
78000F00
70000700
70000780
E0000380
E0000380
E0000380
E0000380
E0000380
E0000380
F0000780
70000700
78000700
38000E00
3C001E00
1F003C00
0FC1F800
07FFF000
01FFC000
003E0000
ENDCHAR
STARTCHAR 00F4
ENCODING 244
SWIDTH 652 0
DWIDTH 29 0
BBX 25 34 2 -1
BITMAP
003E0000
007F0000
00F78000
01E3C000
0780F000
00000000
00000000
00000000
003E0000
01FFC000
07FFF000
0FC1F800
1F007C00
3C001E00
38000E00
78000F00
70000700
70000780
E0000380
E0000380
E0000380
E0000380
E0000380
E0000380
F0000780
70000700
78000700
38000E00
3C001E00
1F003C00
0FC1F800
07FFF000
01FFC000
003E0000
ENDCHAR
STARTCHAR 00F5
ENCODING 245
SWIDTH 652 0
DWIDTH 29 0
BBX 25 34 2 -1
BITMAP
00F00000
03FC2000
07FFF000
031FE000
00038000
00000000
00000000
00000000
003E0000
01FFC000
07FFF000
0FC1F800
1F007C00
3C001E00
38000E00
78000F00
70000700
70000780
E0000380
E0000380
E0000380
E0000380
E0000380
E0000380
F0000780
70000700
78000700
38000E00
3C001E00
1F003C00
0FC1F800
07FFF000
01FFC000
003E0000
ENDCHAR
STARTCHAR 00F6
ENCODING 246
SWIDTH 652 0
DWIDTH 29 0
BBX 25 35 2 -1
BITMAP
01C38000
01C38000
01C38000
01C38000
01C38000
01C38000
00000000
00000000
00000000
007E0000
01FFC000
07FFE000
0F81F800
1E007C00
3C001E00
38000E00
78000F00
70000700
70000780
E0000380
E0000380
E0000380
E0000380
E0000380
E0000380
F0000700
70000700
78000F00
38000E00
3C001C00
1E007C00
0F81F800
07FFE000
01FFC000
007E0000
ENDCHAR
STARTCHAR 00F7
ENCODING 247
SWIDTH 607 0
DWIDTH 27 0
BBX 21 24 3 -1
BITMAP
007000
007000
007000
007000
007000
007000
000000
000000
000000
000000
FFFFF8
FFFFF8
FFFFF8
000000
000000
000000
000000
000000
007000
007000
007000
007000
007000
007000
ENDCHAR
STARTCHAR 00FA
ENCODING 250
SWIDTH 607 0
DWIDTH 27 0
BBX 21 35 3 0
BITMAP
000300
000F80
003F00
00FC00
01F000
01E000
008000
000000
000000
000000
E00038
E00038
E00038
E00038
E00038
E00038
E00038
E00038
E00038
E00038
E00038
E00038
E00038
E00038
E00038
E00038
E00038
F00078
700078
7800F8
3C01F8
3E07B8
1FFFB8
07FE38
01F800
ENDCHAR
STARTCHAR 00FC
ENCODING 252
SWIDTH 607 0
DWIDTH 27 0
BBX 21 35 3 -1
BITMAP
070E00
070E00
070E00
070E00
070E00
070E00
000000
000000
000000
000000
E00038
E00038
E00038
E00038
E00038
E00038
E00038
E00038
E00038
E00038
E00038
E00038
E00038
E00038
E00038
E00038
E00038
F00078
700078
7000F8
3801F8
3E07B8
1FFF38
0FFE38
01F000
ENDCHAR
STARTCHAR 00FD
ENCODING 253
SWIDTH 540 0
DWIDTH 24 0
BBX 22 42 1 -7
BITMAP
000300
000F80
003F00
007E00
01F800
00E000
008000
000000
000000
000000
E0001C
700038
700038
780078
380070
3800F0
1C00E0
1C00E0
1E01C0
0E01C0
0E03C0
070380
070780
078700
038700
038E00
01CE00
01DE00
01FC00
00FC00
00F800
007800
007000
007000
007000
00E000
00E000
01C000
01C000
038000
038000
078000
ENDCHAR
STARTCHAR 0100
ENCODING 256
SWIDTH 742 0
DWIDTH 33 0
BBX 31 39 1 0
BITMAP
00FFFE00
00FFFE00
00FFFE00
00000000
00000000
00000000
00000000
00078000
0007C000
0007C000
000FE000
000EE000
001EF000
001C7000
003C7000
00383800
00383800
00783C00
00701C00
00F01E00
00E00E00
01E00E00
01C00F00
01C00700
03C00780
03FFFF80
07FFFFC0
07FFFFC0
0F0001C0
0E0001E0
0E0000E0
1E0000F0
1C000070
3C000078
38000038
3800003C
7000003C
7000001C
F000001E
ENDCHAR
STARTCHAR 0101
ENCODING 257
SWIDTH 675 0
DWIDTH 30 0
BBX 25 33 2 -1
BITMAP
03FFF000
03FFF000
03FFF000
00000000
00000000
00000000
00000000
003F0000
01FFC380
07FFF380
0FC0FB80
1E003F80
3C001F80
38000F80
78000F80
70000780
70000780
E0000380
E0000380
E0000380
E0000380
E0000380
E0000380
70000780
70000780
78000780
38000F80
3C001F80
1F003F80
0FC0FB80
07FFF380
01FFC380
003E0000
ENDCHAR
STARTCHAR 0102
ENCODING 258
SWIDTH 742 0
DWIDTH 33 0
BBX 31 41 1 0
BITMAP
00E00E00
00781C00
007FFC00
003FF800
000FE000
00000000
00000000
00000000
00000000
00078000
0007C000
0007C000
000FE000
000EE000
001EF000
001C7000
003C7000
00383800
00383800
00783C00
00701C00
00F01E00
00E00E00
01E00E00
01C00F00
01C00700
03800780
03FFFF80
07FFFFC0
07FFFFC0
0F0001C0
0E0001E0
0E0000E0
1E0000F0
1C000070
3C000078
38000038
3800003C
7000003C
7000001C
F000001E
ENDCHAR
STARTCHAR 0103
ENCODING 259
SWIDTH 675 0
DWIDTH 30 0
BBX 25 34 2 -1
BITMAP
03807000
03C0F000
01FFE000
00FFC000
003F0000
00000000
00000000
00000000
003F0000
01FFC380
07FFF380
0FC0FB80
1E003F80
3C001F80
38000F80
78000F80
70000780
70000780
E0000380
E0000380
E0000380
E0000380
E0000380
E0000380
70000780
70000780
78000780
38000F80
3C001F80
1F003F80
0FC0FB80
07FFF380
01FFC380
003E0000
ENDCHAR
STARTCHAR 0104
ENCODING 260
SWIDTH 742 0
DWIDTH 33 0
BBX 32 40 1 -8
BITMAP
00078000
0007C000
000FC000
000FC000
001FE000
001CE000
001CF000
00387000
00387800
00783800
00703C00
00F03C00
00E01C00
00E01E00
01C00E00
01C00F00
03C00700
03800780
07FFFF80
07FFFF80
07FFFFC0
0E0001C0
0E0001E0
1E0000E0
1C0000F0
3C0000F0
38000070
78000078
70000038
7000003C
F000001C
E000001E
00000018
00000030
00000060
00000060
00000060
00000070
0000003F
0000001F
ENDCHAR
STARTCHAR 0105
ENCODING 261
SWIDTH 675 0
DWIDTH 30 0
BBX 26 33 2 -8
BITMAP
003F0000
01FFC380
07FFF380
0FC0FB80
1E003F80
3C001F80
38000F80
78000F80
70000780
70000780
E0000380
E0000380
E0000380
E0000380
E0000380
E0000380
70000780
70000780
78000780
38000F80
3C001F80
1F003F80
0FC0FB80
07FFF380
01FFC380
003E0700
00000C00
00001C00
00001800
00001800
00001C00
00000FC0
000007C0
ENDCHAR
STARTCHAR 0106
ENCODING 262
SWIDTH 810 0
DWIDTH 36 0
BBX 31 42 2 0
BITMAP
00000E00
00001E00
00007E00
0001F800
0003E000
00038000
00010000
00000000
0007F000
003FFE00
00FFFF80
01F80FE0
07E001F0
0F8000F8
0F00003C
1E00001E
3C00001E
38000000
78000000
70000000
70000000
F0000000
E0000000
E0000000
E0000000
E0000000
E0000000
E0000000
E0000000
70000000
70000000
78000000
38000000
3C00000E
1E00001E
0F00003C
0F8000F8
07E001F0
01F80FE0
00FFFF80
003FFE00
0007F000
ENDCHAR
STARTCHAR 0107
ENCODING 263
SWIDTH 652 0
DWIDTH 29 0
BBX 24 35 2 0
BITMAP
000380
000F80
003F00
007E00
00F800
00E000
000000
000000
000000
003F00
01FFE0
07FFF0
0FC0FC
1F003C
3C001E
38000F
780007
700000
700000
E00000
E00000
E00000
E00000
E00000
E00000
F00000
700000
780007
38000F
3C001E
1F003C
0FC0F8
07FFF0
01FFE0
003F00
ENDCHAR
STARTCHAR 010C
ENCODING 268
SWIDTH 810 0
DWIDTH 36 0
BBX 31 41 2 -1
BITMAP
003C0F00
001E1E00
0007BC00
0003F000
0001E000
00000000
00000000
0007F000
003FFE00
00FFFF80
01F80FE0
07E001F0
0F8000F8
0F00003C
1E00001E
3C00001E
38000000
78000000
70000000
70000000
F0000000
E0000000
E0000000
E0000000
E0000000
E0000000
E0000000
E0000000
70000000
70000000
78000000
38000000
3C00000E
1E00001E
0F00003C
0F8000F8
07E001F0
01F80FE0
00FFFF80
003FFE00
0007F000
ENDCHAR
STARTCHAR 010D
ENCODING 269
SWIDTH 652 0
DWIDTH 29 0
BBX 24 34 2 -1
BITMAP
0781E0
03C3C0
01F780
007E00
003C00
000000
000000
000000
003F00
01FFE0
07FFF0
0FC0FC
1F003C
3C001E
38000F
780007
700000
700000
E00000
E00000
E00000
E00000
E00000
E00000
F00000
700000
780007
38000F
3C001E
1F003C
0FC0F8
07FFF0
01FFE0
003F00
ENDCHAR
STARTCHAR 010E
ENCODING 270
SWIDTH 742 0
DWIDTH 33 0
BBX 27 40 3 0
BITMAP
1E078000
0F0F0000
079E0000
01F80000
00F00000
00000000
00000000
00000000
FFFC0000
FFFFC000
FFFFF000
E003F800
E0007C00
E0001E00
E0000F00
E0000780
E0000380
E00003C0
E00001C0
E00001C0
E00000E0
E00000E0
E00000E0
E00000E0
E00000E0
E00000E0
E00000E0
E00000E0
E00001C0
E00001C0
E00003C0
E0000380
E0000780
E0000F00
E0001E00
E0007C00
E003F800
FFFFE000
FFFF8000
FFFC0000
ENDCHAR
STARTCHAR 010F
ENCODING 271
SWIDTH 765 0
DWIDTH 34 0
BBX 32 33 2 -1
BITMAP
00000387
00000387
00000386
0000038E
0000038E
0000039C
0000039C
003F03B8
01FFC380
07FFF380
0FC0FB80
1E003F80
3C001F80
38000F80
78000F80
70000780
70000780
E0000380
E0000380
E0000380
E0000380
E0000380
E0000380
70000780
70000780
78000780
38000F80
3C001F80
1F003F80
0FC0FB80
07FFF380
01FFC380
003E0000
ENDCHAR
STARTCHAR 0110
ENCODING 272
SWIDTH 787 0
DWIDTH 35 0
BBX 30 32 2 0
BITMAP
1FFF8000
1FFFF800
1FFFFE00
1C007F00
1C000F80
1C0003C0
1C0001E0
1C0000F0
1C000070
1C000078
1C000038
1C000038
1C00001C
1C00001C
FFFE001C
FFFE001C
FFFE001C
1C00001C
1C00001C
1C00001C
1C000038
1C000038
1C000078
1C000070
1C0000F0
1C0001E0
1C0003C0
1C000F80
1C007F00
1FFFFE00
1FFFF800
1FFF8000
ENDCHAR
STARTCHAR 0111
ENCODING 273
SWIDTH 675 0
DWIDTH 30 0
BBX 28 33 2 -1
BITMAP
00000380
00000380
00000380
0000FFF0
0000FFF0
0000FFF0
0000FFF0
003F0380
01FFC380
07FFF380
0FC0FB80
1E003F80
3C001F80
38000F80
78000F80
70000780
70000780
E0000380
E0000380
E0000380
E0000380
E0000380
E0000380
70000780
70000780
78000780
38000F80
3C001F80
1F003F80
0FC0FB80
07FFF380
01FFC380
003E0000
ENDCHAR
STARTCHAR 0112
ENCODING 274
SWIDTH 540 0
DWIDTH 24 0
BBX 17 39 3 0
BITMAP
7FFF00
7FFF00
7FFF00
000000
000000
000000
000000
FFFF80
FFFF80
FFFF80
E00000
E00000
E00000
E00000
E00000
E00000
E00000
E00000
E00000
E00000
E00000
FFFF80
FFFF80
FFFF80
E00000
E00000
E00000
E00000
E00000
E00000
E00000
E00000
E00000
E00000
E00000
E00000
FFFF80
FFFF80
FFFF80
ENDCHAR
STARTCHAR 0113
ENCODING 275
SWIDTH 652 0
DWIDTH 29 0
BBX 25 33 2 -1
BITMAP
07FFF000
07FFF000
07FFF000
00000000
00000000
00000000
00000000
007E0000
01FFC000
07FFE000
0F81F800
1E007800
3C003C00
38001E00
70000E00
70000700
60000700
E0000700
FFFFFF00
FFFFFF80
FFFFFF80
E0000000
E0000000
60000000
70000F00
70000E00
38001E00
3C003C00
1E007800
0F81F000
07FFE000
01FFC000
007E0000
ENDCHAR
STARTCHAR 0116
ENCODING 278
SWIDTH 540 0
DWIDTH 24 0
BBX 17 41 3 0
BITMAP
01C000
01C000
01C000
01C000
01C000
01C000
000000
000000
000000
FFFF80
FFFF80
FFFF80
E00000
E00000
E00000
E00000
E00000
E00000
E00000
E00000
E00000
E00000
E00000
FFFF80
FFFF80
FFFF80
E00000
E00000
E00000
E00000
E00000
E00000
E00000
E00000
E00000
E00000
E00000
E00000
FFFF80
FFFF80
FFFF80
ENDCHAR
STARTCHAR 0117
ENCODING 279
SWIDTH 652 0
DWIDTH 29 0
BBX 25 35 2 -1
BITMAP
001C0000
001C0000
001C0000
001C0000
001C0000
001C0000
00000000
00000000
00000000
003E0000
01FFC000
07FFF000
0F81F800
1E007C00
3C001C00
38000E00
70000F00
70000700
60000700
E0000780
FFFFFF80
FFFFFF80
FFFFFF80
E0000000
E0000000
60000000
70000700
70000F00
38000E00
3C001C00
1E007C00
0FC0F800
07FFE000
01FFC000
003E0000
ENDCHAR
STARTCHAR 0118
ENCODING 280
SWIDTH 540 0
DWIDTH 24 0
BBX 18 40 3 -8
BITMAP
FFFFC0
FFFFC0
FFFFC0
E00000
E00000
E00000
E00000
E00000
E00000
E00000
E00000
E00000
E00000
E00000
FFFF80
FFFF80
FFFF80
E00000
E00000
E00000
E00000
E00000
E00000
E00000
E00000
E00000
E00000
E00000
E00000
FFFFC0
FFFFC0
FFFFC0
000700
000E00
001C00
001800
001800
001C00
000FC0
0007C0
ENDCHAR
STARTCHAR 0119
ENCODING 281
SWIDTH 652 0
DWIDTH 29 0
BBX 25 33 2 -8
BITMAP
007E0000
01FFC000
07FFE000
0F81F000
1E007800
3C003C00
38001E00
70000E00
70000700
60000700
E0000700
FFFFFF00
FFFFFF80
FFFFFF80
E0000000
E0000000
60000000
70000F00
70000E00
38001E00
3C003C00
1E007800
0F81F000
07FFE000
01FF8000
007E0000
00180000
00380000
00300000
00300000
00380000
001F8000
000F8000
ENDCHAR
STARTCHAR 011A
ENCODING 282
SWIDTH 540 0
DWIDTH 24 0
BBX 17 40 3 0
BITMAP
781E00
3C3C00
0F7800
07F000
03C000
000000
000000
000000
FFFF80
FFFF80
FFFF80
E00000
E00000
E00000
E00000
E00000
E00000
E00000
E00000
E00000
E00000
E00000
FFFF80
FFFF80
FFFF80
E00000
E00000
E00000
E00000
E00000
E00000
E00000
E00000
E00000
E00000
E00000
E00000
FFFF80
FFFF80
FFFF80
ENDCHAR
STARTCHAR 011B
ENCODING 283
SWIDTH 652 0
DWIDTH 29 0
BBX 25 34 2 -1
BITMAP
0781E000
03C3C000
01EF8000
007E0000
003C0000
00000000
00000000
00000000
007E0000
01FFC000
07FFE000
0F81F800
1E007800
3C003C00
38001E00
70000E00
70000700
60000700
E0000700
FFFFFF00
FFFFFF80
FFFFFF80
E0000000
E0000000
60000000
70000F00
70000E00
38001E00
3C003C00
1E007800
0F81F000
07FFE000
01FFC000
007E0000
ENDCHAR
STARTCHAR 0122
ENCODING 290
SWIDTH 877 0
DWIDTH 39 0
BBX 34 43 2 -10
BITMAP
0007F80000
003FFF0000
00FFFFC000
01F807F000
03C000F800
0780007C00
0F00003E00
1E00001E00
3C00000F00
3800000000
7800000000
7000000000
7000000000
E000000000
E000000000
E000000000
E000000000
E000000000
E00FFFFFC0
E00FFFFFC0
F00FFFFFC0
70000003C0
7000000380
7800000780
3800000700
3C00000F00
1E00001E00
0F00003C00
0780007C00
03E001F000
01FC07E000
00FFFFC000
003FFF0000
0003F00000
0000000000
0000000000
0000E00000
0001C00000
0001C00000
0003800000
0003800000
0007000000
0007000000
ENDCHAR
STARTCHAR 0123
ENCODING 291
SWIDTH 675 0
DWIDTH 30 0
BBX 24 45 2 -10
BITMAP
000700
000E00
000E00
001C00
001C00
001800
003800
003800
000000
000000
007E00
01FF87
07FFE7
0F81F7
1E007F
3C003F
38001F
78001F
70000F
70000F
E00007
E00007
E00007
E00007
E00007
E00007
F0000F
70000F
78000F
38001F
3C003F
1E007F
0F81F7
07FFE7
01FF87
007E07
700007
78000E
3C000E
3C001E
1F003C
0FC0F8
07FFF0
01FFE0
003F00
ENDCHAR
STARTCHAR 012A
ENCODING 298
SWIDTH 225 0
DWIDTH 10 0
BBX 13 39 -2 0
BITMAP
FFF8
FFF8
FFF8
0000
0000
0000
0000
0700
0700
0700
0700
0700
0700
0700
0700
0700
0700
0700
0700
0700
0700
0700
0700
0700
0700
0700
0700
0700
0700
0700
0700
0700
0700
0700
0700
0700
0700
0700
0700
ENDCHAR
STARTCHAR 012B
ENCODING 299
SWIDTH 202 0
DWIDTH 9 0
BBX 13 32 -2 0
BITMAP
FFF8
FFF8
FFF8
0000
0000
0000
0000
0000
0700
0700
0700
0700
0700
0700
0700
0700
0700
0700
0700
0700
0700
0700
0700
0700
0700
0700
0700
0700
0700
0700
0700
0700
ENDCHAR
STARTCHAR 012E
ENCODING 302
SWIDTH 225 0
DWIDTH 10 0
BBX 6 40 1 -8
BITMAP
38
38
38
38
38
38
38
38
38
38
38
38
38
38
38
38
38
38
38
38
38
38
38
38
38
38
38
38
38
38
38
38
30
60
C0
C0
C0
E0
7C
3C
ENDCHAR
STARTCHAR 012F
ENCODING 303
SWIDTH 202 0
DWIDTH 9 0
BBX 6 40 1 -8
BITMAP
38
38
38
38
38
38
00
00
38
38
38
38
38
38
38
38
38
38
38
38
38
38
38
38
38
38
38
38
38
38
38
38
70
60
C0
C0
C0
E0
7C
3C
ENDCHAR
STARTCHAR 0136
ENCODING 310
SWIDTH 585 0
DWIDTH 26 0
BBX 22 41 4 -9
BITMAP
E0007C
E00078
E000F0
E001E0
E003C0
E00780
E00780
E00F00
E01E00
E03C00
E07800
E07800
E0F000
E1E000
E3C000
E78000
E7C000
EFE000
FFF000
FCF000
F87800
F03C00
F01E00
E01E00
E00F00
E00780
E003C0
E003E0
E001E0
E000F0
E00078
E0003C
000000
000000
00E000
01C000
01C000
038000
038000
070000
070000
ENDCHAR
STARTCHAR 0137
ENCODING 311
SWIDTH 495 0
DWIDTH 22 0
BBX 18 41 3 -9
BITMAP
E00000
E00000
E00000
E00000
E00000
E00000
E00000
E00000
E003C0
E00780
E00F00
E00E00
E01E00
E03C00
E07800
E07000
E0F000
E1E000
E3C000
E78000
E78000
EFC000
FFE000
FCF000
F8F000
F07800
F03C00
E01E00
E00F00
E00780
E00780
E003C0
000000
000000
01C000
038000
038000
070000
070000
0E0000
0E0000
ENDCHAR
STARTCHAR 0139
ENCODING 313
SWIDTH 472 0
DWIDTH 21 0
BBX 16 41 4 1
BITMAP
0060
01E0
07F0
0FC0
3F00
3C00
1000
0000
0000
E000
E000
E000
E000
E000
E000
E000
E000
E000
E000
E000
E000
E000
E000
E000
E000
E000
E000
E000
E000
E000
E000
E000
E000
E000
E000
E000
E000
E000
FFFF
FFFF
FFFF
ENDCHAR
STARTCHAR 013A
ENCODING 314
SWIDTH 202 0
DWIDTH 9 0
BBX 10 41 1 1
BITMAP
0180
03C0
0FC0
3F00
FC00
7000
6000
0000
0000
3800
3800
3800
3800
3800
3800
3800
3800
3800
3800
3800
3800
3800
3800
3800
3800
3800
3800
3800
3800
3800
3800
3800
3800
3800
3800
3800
3800
3800
3800
3800
3800
ENDCHAR
STARTCHAR 013B
ENCODING 315
SWIDTH 472 0
DWIDTH 21 0
BBX 16 42 4 -10
BITMAP
E000
E000
E000
E000
E000
E000
E000
E000
E000
E000
E000
E000
E000
E000
E000
E000
E000
E000
E000
E000
E000
E000
E000
E000
E000
E000
E000
E000
E000
FFFF
FFFF
FFFF
0000
0000
0000
0380
0380
0700
0700
0E00
0E00
1C00
ENDCHAR
STARTCHAR 013C
ENCODING 316
SWIDTH 202 0
DWIDTH 9 0
BBX 6 42 0 -10
BITMAP
1C
1C
1C
1C
1C
1C
1C
1C
1C
1C
1C
1C
1C
1C
1C
1C
1C
1C
1C
1C
1C
1C
1C
1C
1C
1C
1C
1C
1C
1C
1C
1C
00
00
00
1C
1C
38
38
70
70
E0
ENDCHAR
STARTCHAR 013D
ENCODING 317
SWIDTH 472 0
DWIDTH 21 0
BBX 16 32 4 0
BITMAP
E007
E00E
E00E
E00C
E01C
E018
E038
E038
E000
E000
E000
E000
E000
E000
E000
E000
E000
E000
E000
E000
E000
E000
E000
E000
E000
E000
E000
E000
E000
FFFF
FFFF
FFFF
ENDCHAR
STARTCHAR 013E
ENCODING 318
SWIDTH 270 0
DWIDTH 12 0
BBX 10 32 3 0
BITMAP
E1C0
E1C0
E180
E380
E380
E700
E700
EE00
E000
E000
E000
E000
E000
E000
E000
E000
E000
E000
E000
E000
E000
E000
E000
E000
E000
E000
E000
E000
E000
E000
E000
E000
ENDCHAR
STARTCHAR 0141
ENCODING 321
SWIDTH 517 0
DWIDTH 23 0
BBX 19 32 3 0
BITMAP
1C0000
1C0000
1C0000
1C0000
1C0000
1C0000
1C0000
1C0000
1C0800
1C1800
1C7800
1CF000
1FE000
1FC000
1F0000
3E0000
7C0000
FC0000
FC0000
DC0000
1C0000
1C0000
1C0000
1C0000
1C0000
1C0000
1C0000
1C0000
1C0000
1FFFE0
1FFFE0
1FFFE0
ENDCHAR
STARTCHAR 0142
ENCODING 322
SWIDTH 292 0
DWIDTH 13 0
BBX 9 32 2 0
BITMAP
1C00
1C00
1C00
1C00
1C00
1C00
1C00
1C00
1C00
1C00
1C80
1D80
1F80
1F00
1E00
3C00
FC00
FC00
DC00
1C00
1C00
1C00
1C00
1C00
1C00
1C00
1C00
1C00
1C00
1C00
1C00
1C00
ENDCHAR
STARTCHAR 0143
ENCODING 323
SWIDTH 742 0
DWIDTH 33 0
BBX 26 41 3 1
BITMAP
00004000
0001E000
0007E000
001F8000
007F0000
007C0000
00300000
00000000
00000000
F80001C0
F80001C0
FC0001C0
FE0001C0
FE0001C0
EF0001C0
E78001C0
E38001C0
E3C001C0
E1E001C0
E0F001C0
E0F001C0
E07801C0
E03C01C0
E01C01C0
E01E01C0
E00F01C0
E00781C0
E00781C0
E003C1C0
E001E1C0
E000E1C0
E000F1C0
E00079C0
E00039C0
E0003DC0
E0001FC0
E0000FC0
E0000FC0
E00007C0
E00003C0
E00001C0
ENDCHAR
STARTCHAR 0144
ENCODING 324
SWIDTH 607 0
DWIDTH 27 0
BBX 21 34 3 1
BITMAP
000700
001F80
007F00
00FC00
01F000
01C000
000000
000000
000000
00FC00
E3FF00
EFFF80
FF07C0
FC01E0
F800F0
F00070
F00078
E00038
E00038
E00038
E00038
E00038
E00038
E00038
E00038
E00038
E00038
E00038
E00038
E00038
E00038
E00038
E00038
E00038
ENDCHAR
STARTCHAR 0145
ENCODING 325
SWIDTH 742 0
DWIDTH 33 0
BBX 26 41 3 -9
BITMAP
F80001C0
F80001C0
FC0001C0
FE0001C0
FE0001C0
EF0001C0
E78001C0
E38001C0
E3C001C0
E1E001C0
E0F001C0
E0F001C0
E07801C0
E03C01C0
E01C01C0
E01E01C0
E00F01C0
E00781C0
E00781C0
E003C1C0
E001E1C0
E000E1C0
E000F1C0
E00079C0
E00039C0
E0003DC0
E0001FC0
E0000FC0
E0000FC0
E00007C0
E00003C0
E00001C0
00000000
00000000
000E0000
001C0000
001C0000
00380000
00380000
00700000
00700000
ENDCHAR
STARTCHAR 0146
ENCODING 326
SWIDTH 607 0
DWIDTH 27 0
BBX 21 34 3 -9
BITMAP
00FC00
E3FF00
EFFF80
FF07C0
FC01E0
F800F0
F00070
F00078
E00038
E00038
E00038
E00038
E00038
E00038
E00038
E00038
E00038
E00038
E00038
E00038
E00038
E00038
E00038
E00038
E00038
000000
000000
007000
007000
00E000
00E000
01C000
01C000
038000
ENDCHAR
STARTCHAR 0147
ENCODING 327
SWIDTH 742 0
DWIDTH 33 0
BBX 26 40 3 0
BITMAP
07C0F000
01E1E000
00F7C000
007F0000
001E0000
00000000
00000000
00000000
F80001C0
F80001C0
FC0001C0
FE0001C0
FE0001C0
EF0001C0
E78001C0
E38001C0
E3C001C0
E1E001C0
E0F001C0
E0F001C0
E07801C0
E03C01C0
E01C01C0
E01E01C0
E00F01C0
E00781C0
E00781C0
E003C1C0
E001E1C0
E000E1C0
E000F1C0
E00079C0
E00039C0
E0003DC0
E0001FC0
E0000FC0
E0000FC0
E00007C0
E00003C0
E00001C0
ENDCHAR
STARTCHAR 0148
ENCODING 328
SWIDTH 607 0
DWIDTH 27 0
BBX 21 33 3 0
BITMAP
1E0780
0F0F00
03DE00
01FC00
00F000
000000
000000
000000
00FC00
E3FF00
EFFF80
FF07C0
FC01E0
F800F0
F00070
F00078
E00038
E00038
E00038
E00038
E00038
E00038
E00038
E00038
E00038
E00038
E00038
E00038
E00038
E00038
E00038
E00038
E00038
ENDCHAR
STARTCHAR 014C
ENCODING 332
SWIDTH 877 0
DWIDTH 39 0
BBX 34 40 2 -1
BITMAP
003FFF0000
003FFF0000
003FFF0000
0000000000
0000000000
0000000000
0007F80000
003FFF0000
00FFFFC000
01F807E000
03C001F800
0780007C00
0F00003C00
1E00001E00
3C00000F00
3800000700
7800000780
7000000380
7000000380
E0000001C0
E0000001C0
E0000001C0
E0000001C0
E0000001C0
E0000001C0
E0000001C0
E0000001C0
7000000380
7000000380
7800000780
3800000700
3C00000F00
1E00001E00
0F00003C00
0780007800
03E001F000
01F807E000
00FFFF8000
003FFF0000
0003F00000
ENDCHAR
STARTCHAR 014D
ENCODING 333
SWIDTH 652 0
DWIDTH 29 0
BBX 25 33 2 -1
BITMAP
07FFF000
07FFF000
07FFF000
00000000
00000000
00000000
00000000
003E0000
01FFC000
07FFF000
0FC1F800
1F007C00
3C001E00
38000E00
78000F00
70000700
70000780
E0000380
E0000380
E0000380
E0000380
E0000380
E0000380
F0000780
70000700
78000700
38000E00
3C001E00
1F003C00
0FC1F800
07FFF000
01FFC000
003E0000
ENDCHAR
STARTCHAR 0150
ENCODING 336
SWIDTH 877 0
DWIDTH 39 0
BBX 34 43 2 -1
BITMAP
0000100000
0000303000
0000787800
0000F1F000
0003E3C000
0007878000
000F0F0000
0006060000
0000000000
0007F80000
003FFF0000
00FFFFC000
01F807E000
03C001F800
0780007C00
0F00003C00
1E00001E00
3C00000F00
3800000700
7800000780
7000000380
7000000380
E0000001C0
E0000001C0
E0000001C0
E0000001C0
E0000001C0
E0000001C0
E0000001C0
E0000001C0
7000000380
7000000380
7800000780
3800000700
3C00000F00
1E00001E00
0F00003C00
0780007800
03E001F000
01F807E000
00FFFF8000
003FFF0000
0003F00000
ENDCHAR
STARTCHAR 0151
ENCODING 337
SWIDTH 652 0
DWIDTH 29 0
BBX 25 36 2 -1
BITMAP
00000400
00060E00
001F1E00
003C3C00
00787800
00F1F000
01E1C000
00808000
00000000
00000000
003E0000
01FFC000
07FFF000
0FC1F800
1F007C00
3C001E00
38000E00
78000F00
70000700
70000780
E0000380
E0000380
E0000380
E0000380
E0000380
E0000380
F0000780
70000700
78000700
38000E00
3C001E00
1F003C00
0FC1F800
07FFF000
01FFC000
003E0000
ENDCHAR
STARTCHAR 0154
ENCODING 340
SWIDTH 607 0
DWIDTH 27 0
BBX 22 41 3 1
BITMAP
000600
001E00
007F00
01FC00
07F000
03C000
030000
000000
000000
FFFC00
FFFF80
FFFFC0
E003F0
E000F0
E00078
E00038
E0003C
E0001C
E0001C
E0001C
E0001C
E0001C
E00038
E00078
E000F8
E003F0
E1FFE0
E1FF80
E0FE00
E07800
E03C00
E03C00
E01E00
E00F00
E00780
E00780
E003C0
E001E0
E000F0
E000F0
E00078
ENDCHAR
STARTCHAR 0155
ENCODING 341
SWIDTH 292 0
DWIDTH 13 0
BBX 11 33 3 1
BITMAP
00E0
03E0
0FC0
3F00
3E00
3800
0000
0000
0000
E3C0
E7C0
EFC0
FE00
F800
F000
F000
E000
E000
E000
E000
E000
E000
E000
E000
E000
E000
E000
E000
E000
E000
E000
E000
E000
ENDCHAR
STARTCHAR 0156
ENCODING 342
SWIDTH 607 0
DWIDTH 27 0
BBX 22 41 3 -9
BITMAP
FFFC00
FFFF80
FFFFC0
E003F0
E000F0
E00078
E00038
E0003C
E0001C
E0001C
E0001C
E0001C
E0001C
E00038
E00078
E000F8
E003F0
E1FFE0
E1FF80
E0FE00
E07800
E03C00
E03C00
E01E00
E00F00
E00780
E00780
E003C0
E001E0
E000F0
E000F0
E00078
000000
000000
007000
00E000
00E000
01C000
01C000
038000
038000
ENDCHAR
STARTCHAR 0157
ENCODING 343
SWIDTH 292 0
DWIDTH 13 0
BBX 12 34 1 -10
BITMAP
38F0
39F0
3BF0
3F80
3E00
3C00
3C00
3800
3800
3800
3800
3800
3800
3800
3800
3800
3800
3800
3800
3800
3800
3800
3800
3800
0000
0000
0000
1C00
3800
3800
7000
7000
E000
E000
ENDCHAR
STARTCHAR 0158
ENCODING 344
SWIDTH 607 0
DWIDTH 27 0
BBX 22 40 3 0
BITMAP
1E0780
0F0F00
079E00
01F800
00F000
000000
000000
000000
FFFC00
FFFF80
FFFFC0
E003F0
E000F0
E00078
E00038
E0003C
E0001C
E0001C
E0001C
E0001C
E0001C
E00038
E00078
E000F8
E003F0
E1FFE0
E1FF80
E0FE00
E07800
E03C00
E03C00
E01E00
E00F00
E00780
E00780
E003C0
E001E0
E000F0
E000F0
E00078
ENDCHAR
STARTCHAR 0159
ENCODING 345
SWIDTH 292 0
DWIDTH 13 0
BBX 14 33 1 0
BITMAP
F03C
7878
3DE0
1FC0
0780
0000
0000
0000
0000
38F0
39F0
3BF0
3F80
3E00
3C00
3C00
3800
3800
3800
3800
3800
3800
3800
3800
3800
3800
3800
3800
3800
3800
3800
3800
3800
ENDCHAR
STARTCHAR 015A
ENCODING 346
SWIDTH 495 0
DWIDTH 22 0
BBX 20 42 1 0
BITMAP
000E00
003E00
00FE00
03F800
07E000
038000
020000
000000
01F800
07FE00
0FFF00
1E0780
3C03C0
3801C0
7001E0
7000E0
7000E0
700000
700000
780000
3C0000
3F0000
1FC000
0FFC00
03FF00
007F80
000FC0
0003E0
0001E0
0000F0
000070
000070
E00070
E00070
F00070
7000E0
7800E0
3C01C0
3E07C0
1FFF80
07FE00
00F800
ENDCHAR
STARTCHAR 015B
ENCODING 347
SWIDTH 382 0
DWIDTH 17 0
BBX 15 36 1 -1
BITMAP
0010
0070
01F8
03F0
0FC0
1F00
0C00
0800
0000
0000
0380
0FF0
1FF8
3C78
783C
701C
701C
7000
7800
7C00
3F00
1FC0
0FF0
01F8
007C
001E
001E
000E
E00E
E00E
F00E
701C
783C
3FF8
1FF0
03C0
ENDCHAR
STARTCHAR 0160
ENCODING 352
SWIDTH 495 0
DWIDTH 22 0
BBX 20 41 1 -1
BITMAP
1E0780
0F0F00
07BE00
03F800
00F000
000000
000000
01F800
07FE00
0FFF00
1E0780
3C03C0
3801C0
7001E0
7000E0
7000E0
700000
700000
780000
3C0000
3F0000
1FC000
0FFC00
03FF00
007F80
000FC0
0003E0
0001E0
0000F0
000070
000070
E00070
E00070
F00070
7000E0
7800E0
3C01C0
3E07C0
1FFF80
07FE00
00F800
ENDCHAR
STARTCHAR 0161
ENCODING 353
SWIDTH 382 0
DWIDTH 17 0
BBX 15 34 1 -1
BITMAP
F03C
7C78
1EF0
0FE0
07C0
0000
0000
0000
0380
0FF0
1FF8
3C78
783C
701C
701C
7000
7800
7C00
3F00
1FC0
0FF0
01F8
007C
001E
001E
000E
E00E
E00E
F00E
701C
783C
3FF8
1FF0
03C0
ENDCHAR
STARTCHAR 0162
ENCODING 354
SWIDTH 427 0
DWIDTH 19 0
BBX 17 42 1 -10
BITMAP
FFFF80
FFFF80
FFFF80
01C000
01C000
01C000
01C000
01C000
01C000
01C000
01C000
01C000
01C000
01C000
01C000
01C000
01C000
01C000
01C000
01C000
01C000
01C000
01C000
01C000
01C000
01C000
01C000
01C000
01C000
01C000
01C000
01C000
000000
000000
000000
01C000
01C000
038000
038000
070000
070000
0E0000
ENDCHAR
STARTCHAR 0163
ENCODING 355
SWIDTH 337 0
DWIDTH 15 0
BBX 14 42 1 -10
BITMAP
0700
0700
0700
0700
0700
0700
0700
0700
FFFC
FFFC
FFFC
0700
0700
0700
0700
0700
0700
0700
0700
0700
0700
0700
0700
0700
0700
0700
0700
0700
0700
0700
0700
0700
0000
0000
0000
0300
0700
0600
0E00
0C00
1C00
1800
ENDCHAR
STARTCHAR 0164
ENCODING 356
SWIDTH 427 0
DWIDTH 19 0
BBX 17 40 1 0
BITMAP
781E00
1E3C00
0F7800
07F000
03C000
000000
000000
000000
FFFF80
FFFF80
FFFF80
01C000
01C000
01C000
01C000
01C000
01C000
01C000
01C000
01C000
01C000
01C000
01C000
01C000
01C000
01C000
01C000
01C000
01C000
01C000
01C000
01C000
01C000
01C000
01C000
01C000
01C000
01C000
01C000
01C000
ENDCHAR
STARTCHAR 0165
ENCODING 357
SWIDTH 360 0
DWIDTH 16 0
BBX 16 34 1 0
BITMAP
0007
0007
070E
070E
070C
071C
071C
0738
0700
0700
FFFC
FFFC
FFFC
0700
0700
0700
0700
0700
0700
0700
0700
0700
0700
0700
0700
0700
0700
0700
0700
0700
0700
0700
0700
0700
ENDCHAR
STARTCHAR 016A
ENCODING 362
SWIDTH 652 0
DWIDTH 29 0
BBX 22 40 3 -1
BITMAP
1FFFE0
1FFFE0
1FFFE0
000000
000000
000000
000000
E0001C
E0001C
E0001C
E0001C
E0001C
E0001C
E0001C
E0001C
E0001C
E0001C
E0001C
E0001C
E0001C
E0001C
E0001C
E0001C
E0001C
E0001C
E0001C
E0001C
E0001C
E0001C
E0001C
E0001C
F0001C
700038
700038
380070
3C00F0
1F03E0
0FFFC0
07FF00
00FC00
ENDCHAR
STARTCHAR 016B
ENCODING 363
SWIDTH 607 0
DWIDTH 27 0
BBX 21 33 3 -1
BITMAP
1FFFC0
1FFFC0
1FFFC0
000000
000000
000000
000000
000000
E00038
E00038
E00038
E00038
E00038
E00038
E00038
E00038
E00038
E00038
E00038
E00038
E00038
E00038
E00038
E00038
E00038
F00078
700078
7800F8
3C01F8
3E07B8
1FFFB8
07FE38
01F800
ENDCHAR
STARTCHAR 016E
ENCODING 366
SWIDTH 652 0
DWIDTH 29 0
BBX 22 44 3 -1
BITMAP
003800
00FE00
00FE00
01C700
018300
018300
01C700
01FF00
00FE00
00FC00
003800
E0001C
E0001C
E0001C
E0001C
E0001C
E0001C
E0001C
E0001C
E0001C
E0001C
E0001C
E0001C
E0001C
E0001C
E0001C
E0001C
E0001C
E0001C
E0001C
E0001C
E0001C
E0001C
E0001C
E0001C
F0001C
700038
780038
380078
3C00F0
1F03E0
0FFFC0
03FF80
00FC00
ENDCHAR
STARTCHAR 016F
ENCODING 367
SWIDTH 607 0
DWIDTH 27 0
BBX 21 37 3 -1
BITMAP
007000
01FC00
01FC00
038E00
030600
030600
038E00
01FC00
01FC00
007000
000000
000000
E00038
E00038
E00038
E00038
E00038
E00038
E00038
E00038
E00038
E00038
E00038
E00038
E00038
E00038
E00038
E00038
E00038
F00078
700078
7800F8
3C01F8
3E07B8
1FFF38
07FE38
01F800
ENDCHAR
STARTCHAR 0170
ENCODING 368
SWIDTH 652 0
DWIDTH 29 0
BBX 22 42 3 0
BITMAP
001010
003878
00F8F0
01E1E0
03C3C0
078780
070700
000000
000000
E0001C
E0001C
E0001C
E0001C
E0001C
E0001C
E0001C
E0001C
E0001C
E0001C
E0001C
E0001C
E0001C
E0001C
E0001C
E0001C
E0001C
E0001C
E0001C
E0001C
E0001C
E0001C
E0001C
E0001C
F0001C
700038
700038
380070
3C00F0
1F03E0
0FFFC0
07FF00
00FC00
ENDCHAR
STARTCHAR 0171
ENCODING 369
SWIDTH 607 0
DWIDTH 27 0
BBX 21 35 3 0
BITMAP
003030
007878
00F1F0
03E3E0
078780
0F0F00
060600
000000
000000
000000
E00038
E00038
E00038
E00038
E00038
E00038
E00038
E00038
E00038
E00038
E00038
E00038
E00038
E00038
E00038
E00038
E00038
F00078
700078
7800F8
3C01F8
3E07B8
1FFFB8
07FE38
01F800
ENDCHAR
STARTCHAR 0172
ENCODING 370
SWIDTH 652 0
DWIDTH 29 0
BBX 22 40 3 -8
BITMAP
E0001C
E0001C
E0001C
E0001C
E0001C
E0001C
E0001C
E0001C
E0001C
E0001C
E0001C
E0001C
E0001C
E0001C
E0001C
E0001C
E0001C
E0001C
E0001C
E0001C
E0001C
E0001C
E0001C
E0001C
F0001C
700038
780038
380070
3C00F0
1F03E0
0FFFC0
03FF00
00FC00
003000
007000
006000
006000
007000
003F00
001F00
ENDCHAR
STARTCHAR 0173
ENCODING 371
SWIDTH 607 0
DWIDTH 27 0
BBX 22 32 3 -8
BITMAP
E00038
E00038
E00038
E00038
E00038
E00038
E00038
E00038
E00038
E00038
E00038
E00038
E00038
E00038
E00038
E00038
E00038
F00078
700078
7800F8
3C01F8
3E07B8
1FFFB8
07FE38
01F870
0000C0
0001C0
000180
000180
0001C0
0000FC
00007C
ENDCHAR
STARTCHAR 0179
ENCODING 377
SWIDTH 472 0
DWIDTH 21 0
BBX 20 41 1 1
BITMAP
000400
001E00
007E00
01F800
07F000
03C000
030000
000000
000000
FFFFF0
FFFFF0
FFFFF0
0000E0
0001E0
0003C0
000380
000780
000700
000F00
001E00
001C00
003C00
007800
007000
00F000
00E000
01E000
03C000
038000
078000
070000
0F0000
1E0000
1C0000
3C0000
380000
780000
F00000
FFFFF0
FFFFF0
FFFFF0
ENDCHAR
STARTCHAR 017A
ENCODING 378
SWIDTH 427 0
DWIDTH 19 0
BBX 18 34 0 1
BITMAP
001C00
007C00
01FC00
03F000
0FC000
070000
040000
000000
000000
000000
FFFF80
FFFF80
FFFF80
000780
000F00
001E00
001C00
003C00
007800
007000
00F000
01E000
03C000
038000
078000
0F0000
0E0000
1E0000
3C0000
780000
700000
FFFFC0
FFFFC0
FFFFC0
ENDCHAR
STARTCHAR 017B
ENCODING 379
SWIDTH 472 0
DWIDTH 21 0
BBX 19 41 1 0
BITMAP
00E000
00E000
00E000
00E000
00E000
00E000
000000
000000
000000
FFFFE0
FFFFE0
FFFFE0
0001E0
0003C0
000380
000780
000700
000F00
001E00
001C00
003C00
003800
007800
00F000
00E000
01E000
01C000
03C000
078000
070000
0F0000
0E0000
1E0000
3C0000
380000
780000
700000
F00000
FFFFE0
FFFFE0
FFFFE0
ENDCHAR
STARTCHAR 017C
ENCODING 380
SWIDTH 427 0
DWIDTH 19 0
BBX 17 34 1 0
BITMAP
01C000
01C000
01C000
01C000
01C000
01C000
000000
000000
000000
000000
FFFF00
FFFF00
FFFF00
000F00
000E00
001C00
003C00
007800
007000
00F000
01E000
01C000
03C000
078000
070000
0F0000
1E0000
3C0000
380000
780000
F00000
FFFF80
FFFF80
FFFF80
ENDCHAR
STARTCHAR 017D
ENCODING 381
SWIDTH 472 0
DWIDTH 21 0
BBX 20 40 1 0
BITMAP
1E0780
0F0F00
07BC00
03F800
00F000
000000
000000
000000
FFFFF0
FFFFF0
FFFFF0
0000E0
0001E0
0003C0
000380
000780
000700
000F00
001E00
001C00
003C00
007800
007000
00F000
00E000
01E000
03C000
038000
078000
070000
0F0000
1E0000
1C0000
3C0000
380000
780000
F00000
FFFFF0
FFFFF0
FFFFF0
ENDCHAR
STARTCHAR 017E
ENCODING 382
SWIDTH 427 0
DWIDTH 19 0
BBX 18 33 0 0
BITMAP
3C0F00
1E1E00
0F7800
07F000
01E000
000000
000000
000000
000000
FFFF80
FFFF80
FFFF80
000780
000F00
001E00
001C00
003C00
007800
007000
00F000
01E000
03C000
038000
078000
0F0000
0E0000
1E0000
3C0000
780000
700000
FFFFC0
FFFFC0
FFFFC0
ENDCHAR
STARTCHAR 0218
ENCODING 536
SWIDTH 495 0
DWIDTH 22 0
BBX 20 43 1 -10
BITMAP
01F800
07FE00
0FFF00
1E0780
3C03C0
3801C0
7001E0
7000E0
7000E0
700000
700000
780000
3C0000
3F0000
1FC000
0FFC00
03FF00
007F80
000FC0
0003E0
0001E0
0000F0
000070
000070
E00070
E00070
F00070
7000E0
7800E0
3C01C0
3E07C0
1FFF80
07FE00
00F800
000000
000000
007000
00E000
00E000
01C000
01C000
038000
038000
ENDCHAR
STARTCHAR 0219
ENCODING 537
SWIDTH 382 0
DWIDTH 17 0
BBX 15 35 1 -10
BITMAP
0380
0FF0
1FF8
3C78
783C
701C
701C
7000
7800
7C00
3F00
1FC0
0FF0
01F8
007C
001E
001E
000E
E00E
E00E
F00E
701C
783C
3FF8
1FF0
03C0
0000
0000
0380
0380
0700
0700
0E00
0E00
1C00
ENDCHAR
STARTCHAR 021A
ENCODING 538
SWIDTH 427 0
DWIDTH 19 0
BBX 17 42 1 -10
BITMAP
FFFF80
FFFF80
FFFF80
01C000
01C000
01C000
01C000
01C000
01C000
01C000
01C000
01C000
01C000
01C000
01C000
01C000
01C000
01C000
01C000
01C000
01C000
01C000
01C000
01C000
01C000
01C000
01C000
01C000
01C000
01C000
01C000
01C000
000000
000000
000000
01C000
01C000
038000
038000
070000
070000
0E0000
ENDCHAR
STARTCHAR 021B
ENCODING 539
SWIDTH 337 0
DWIDTH 15 0
BBX 14 42 1 -10
BITMAP
0700
0700
0700
0700
0700
0700
0700
0700
FFFC
FFFC
FFFC
0700
0700
0700
0700
0700
0700
0700
0700
0700
0700
0700
0700
0700
0700
0700
0700
0700
0700
0700
0700
0700
0000
0000
0000
0300
0700
0600
0E00
0C00
1C00
1800
ENDCHAR
STARTCHAR 02C7
ENCODING 711
SWIDTH 495 0
DWIDTH 22 0
BBX 13 5 4 28
BITMAP
F038
78F0
3DE0
1FC0
0F80
ENDCHAR
STARTCHAR 02D8
ENCODING 728
SWIDTH 450 0
DWIDTH 20 0
BBX 15 5 2 28
BITMAP
E00E
783C
7FFC
1FF0
07C0
ENDCHAR
STARTCHAR 02D9
ENCODING 729
SWIDTH 225 0
DWIDTH 10 0
BBX 3 6 3 28
BITMAP
E0
E0
E0
E0
E0
E0
ENDCHAR
STARTCHAR 02DB
ENCODING 731
SWIDTH 292 0
DWIDTH 13 0
BBX 7 8 3 -7
BITMAP
38
60
E0
C0
C0
E0
7E
3E
ENDCHAR
STARTCHAR 02DD
ENCODING 733
SWIDTH 562 0
DWIDTH 25 0
BBX 16 7 5 27
BITMAP
0306
078F
1E1E
3C3C
7878
F1E0
60C0
ENDCHAR
STARTCHAR 0394
ENCODING 916
SWIDTH 607 0
DWIDTH 27 0
BBX 26 30 0 1
BITMAP
00040000
00060000
00060000
000E0000
000F0000
001F0000
001F8000
003F8000
00378000
0067C000
0063C000
00C3E000
00C3E000
0081E000
0181F000
0180F000
0300F800
0300F800
06007800
06007C00
0C003C00
0C003E00
18003E00
18001E00
10001F00
30000F00
20000F80
60000F80
7FFFFF80
FFFFFFC0
ENDCHAR
STARTCHAR 03BC
ENCODING 956
SWIDTH 607 0
DWIDTH 27 0
BBX 20 32 3 -9
BITMAP
E00070
E00070
E00070
E00070
E00070
E00070
E00070
E00070
E00070
E00070
E00070
E00070
E00070
E00070
E00070
E00070
E00070
F000F0
F000F0
F801F0
FC03F0
FF07F0
EFFF70
E7FE70
E1F000
E00000
E00000
E00000
E00000
E00000
E00000
E00000
ENDCHAR
STARTCHAR 2013
ENCODING 8211
SWIDTH 495 0
DWIDTH 22 0
BBX 19 3 2 11
BITMAP
FFFFE0
FFFFE0
FFFFE0
ENDCHAR
STARTCHAR 2014
ENCODING 8212
SWIDTH 990 0
DWIDTH 44 0
BBX 41 3 2 11
BITMAP
FFFFFFFFFF80
FFFFFFFFFF80
FFFFFFFFFF80
ENDCHAR
STARTCHAR 2018
ENCODING 8216
SWIDTH 360 0
DWIDTH 16 0
BBX 7 9 4 23
BITMAP
E0
70
70
38
38
3C
1C
1E
0E
ENDCHAR
STARTCHAR 2019
ENCODING 8217
SWIDTH 360 0
DWIDTH 16 0
BBX 7 9 4 23
BITMAP
0E
1C
1C
38
38
78
70
F0
E0
ENDCHAR
STARTCHAR 201A
ENCODING 8218
SWIDTH 360 0
DWIDTH 16 0
BBX 7 9 4 -3
BITMAP
0E
1C
1C
3C
38
78
70
70
E0
ENDCHAR
STARTCHAR 201C
ENCODING 8220
SWIDTH 495 0
DWIDTH 22 0
BBX 13 9 4 23
BITMAP
E3C0
71C0
71C0
38E0
38E0
3C70
1C70
1C78
0E38
ENDCHAR
STARTCHAR 201D
ENCODING 8221
SWIDTH 495 0
DWIDTH 22 0
BBX 13 9 4 23
BITMAP
1E38
1C70
3C70
38E0
38E0
71E0
71C0
E1C0
E380
ENDCHAR
STARTCHAR 201E
ENCODING 8222
SWIDTH 495 0
DWIDTH 22 0
BBX 14 9 4 -3
BITMAP
0E3C
1E38
1C38
3C70
3870
38F0
70E0
71E0
F1C0
ENDCHAR
STARTCHAR 2020
ENCODING 8224
SWIDTH 562 0
DWIDTH 25 0
BBX 19 38 2 -6
BITMAP
00E000
00E000
00E000
00E000
00E000
00E000
00E000
00E000
FFFFE0
FFFFE0
FFFFE0
00E000
00E000
00E000
00E000
00E000
00E000
00E000
00E000
00E000
00E000
00E000
00E000
00E000
00E000
00E000
00E000
00E000
00E000
00E000
00E000
00E000
00E000
00E000
00E000
00E000
00E000
00E000
ENDCHAR
STARTCHAR 2021
ENCODING 8225
SWIDTH 562 0
DWIDTH 25 0
BBX 19 38 2 -6
BITMAP
00E000
00E000
00E000
00E000
00E000
00E000
00E000
00E000
FFFFE0
FFFFE0
FFFFE0
00E000
00E000
00E000
00E000
00E000
00E000
00E000
00E000
00E000
00E000
00E000
00E000
00E000
00E000
00E000
FFFFE0
FFFFE0
FFFFE0
00E000
00E000
00E000
00E000
00E000
00E000
00E000
00E000
00E000
ENDCHAR
STARTCHAR 2022
ENCODING 8226
SWIDTH 607 0
DWIDTH 27 0
BBX 13 14 7 10
BITMAP
0F80
1FE0
3FF0
7FF0
FFF8
FFF8
FFF8
FFF8
FFF8
FFF8
7FF0
3FE0
3FE0
0F80
ENDCHAR
STARTCHAR 2026
ENCODING 8230
SWIDTH 990 0
DWIDTH 44 0
BBX 32 6 6 0
BITMAP
E0038007
E0038007
E0038007
E0038007
E0038007
E0038007
ENDCHAR
STARTCHAR 2030
ENCODING 8240
SWIDTH 1170 0
DWIDTH 52 0
BBX 49 34 1 -1
BITMAP
07E00000000000
1FF801C0000000
3FFC01C0000000
7C3E0380000000
700E0300000000
F00F0700000000
E0070E00000000
E0070E00000000
E0071C00000000
E0071C00000000
F00F3800000000
700E3000000000
7C3E7000000000
3FFCE000000000
0FF0E000000000
03C1C000000000
0001C000000000
000383C001E000
00030FF007F800
00073FFC1FFE00
000E3C3C1E1E00
000E781E3C0F00
001C700F380780
001CE007700380
0038E007700380
0030E007700380
0070E007700380
00E0E007700380
00E0700E380700
01C0781E3C0F00
01C03C3C1E1E00
03803FFC1FFE00
03000FF007F800
000003C001E000
ENDCHAR
STARTCHAR 2039
ENCODING 8249
SWIDTH 247 0
DWIDTH 11 0
BBX 7 18 2 4
BITMAP
08
0E
1C
1C
38
38
70
70
E0
E0
70
70
38
38
1C
1E
0E
08
ENDCHAR
STARTCHAR 203A
ENCODING 8250
SWIDTH 247 0
DWIDTH 11 0
BBX 7 18 2 4
BITMAP
20
E0
70
70
38
38
1C
1C
0E
0E
1C
1C
38
38
70
70
E0
20
ENDCHAR
STARTCHAR 20AC
ENCODING 8364
SWIDTH 562 0
DWIDTH 25 0
BBX 21 34 1 -1
BITMAP
001F80
007FF0
01FFF8
03E078
038018
070000
070000
0E0000
0E0000
0C0000
0C0000
1C0000
7FFFE0
7FFFC0
FFFFC0
1C0000
1C0000
1C0000
7FFF80
7FFF00
FFFF00
1C0000
1C0000
0C0000
0E0000
0E0000
0F0000
070000
078008
03C018
01F078
01FFF8
007FF0
001F80
ENDCHAR
STARTCHAR 2122
ENCODING 8482
SWIDTH 990 0
DWIDTH 44 0
BBX 35 19 0 13
BITMAP
FFF38000E0
FFF3C001E0
0603C001E0
0603E003E0
0603600360
0603700760
0603300660
0603380E60
0603180C60
06031C1C60
06030C1C60
06030E3860
0603063860
0603073060
0603077060
060303E060
060303E060
060301C060
060301C060
ENDCHAR
STARTCHAR 2202
ENCODING 8706
SWIDTH 472 0
DWIDTH 21 0
BBX 19 33 1 -2
BITMAP
07C000
3FF800
383C00
000E00
000700
000380
000380
0001C0
0001C0
0001C0
0000C0
0000E0
0000E0
0000E0
0000E0
03F0E0
0FFCE0
1E07E0
3C03E0
7801E0
7001E0
F001E0
E001E0
E003C0
E003C0
E007C0
E00780
600F80
700F00
301E00
3C7C00
0FF800
03C000
ENDCHAR
STARTCHAR 2206
ENCODING 8710
SWIDTH 607 0
DWIDTH 27 0
BBX 26 30 0 1
BITMAP
00040000
00060000
00060000
000E0000
000F0000
001F0000
001F8000
003F8000
00378000
0067C000
0063C000
00C3E000
00C3E000
0081E000
0181F000
0180F000
0300F800
0300F800
06007800
06007C00
0C003C00
0C003E00
18003E00
18001E00
10001F00
30000F00
20000F80
60000F80
7FFFFF80
FFFFFFC0
ENDCHAR
STARTCHAR 2211
ENCODING 8721
SWIDTH 607 0
DWIDTH 27 0
BBX 25 32 1 0
BITMAP
FFFFFC00
7FFFFC00
3FFFFC00
3E001C00
1E000400
0F000400
07800400
07C00000
03C00000
01E00000
00F00000
00F80000
007C0000
003C0000
001E0000
001F0000
000F0000
00060000
000E0000
001C0000
00380000
00700000
00E00000
01C00000
01800080
03800100
07000100
0E000300
1C000700
3FFFFE00
7FFFFE00
FFFFFE00
ENDCHAR
STARTCHAR 2219
ENCODING 8729
SWIDTH 270 0
DWIDTH 12 0
BBX 3 6 4 8
BITMAP
E0
E0
E0
E0
E0
E0
ENDCHAR
STARTCHAR 221A
ENCODING 8730
SWIDTH 450 0
DWIDTH 20 0
BBX 19 35 0 -2
BITMAP
0000E0
0000E0
0000E0
0000C0
0000C0
0000C0
0001C0
0001C0
0001C0
000180
000180
000180
000180
040380
1C0380
7E0380
EE0300
070300
070300
038700
038700
018700
01C600
00C600
00E600
006E00
007E00
003E00
003C00
001C00
001C00
000C00
000C00
000400
000400
ENDCHAR
STARTCHAR 2260
ENCODING 8800
SWIDTH 540 0
DWIDTH 24 0
BBX 23 24 1 -1
BITMAP
0000C0
0001E0
0001E0
0003C0
000380
000780
FFFFFE
FFFFFE
FFFFFE
001C00
003C00
003800
007800
007000
00F000
FFFFFE
FFFFFE
FFFFFE
038000
078000
0F0000
0F0000
1E0000
040000
ENDCHAR
STARTCHAR 2264
ENCODING 8804
SWIDTH 540 0
DWIDTH 24 0
BBX 22 29 1 0
BITMAP
000004
00001C
00007C
0003FC
000FF0
003F80
00FE00
07F800
1FE000
7F0000
FC0000
F00000
FC0000
7F8000
1FE000
07F800
00FE00
003F80
000FF0
0003FC
00007C
00001C
000004
000000
000000
000000
FFFFFC
FFFFFC
FFFFFC
ENDCHAR
STARTCHAR 2265
ENCODING 8805
SWIDTH 540 0
DWIDTH 24 0
BBX 22 29 1 0
BITMAP
800000
E00000
F80000
FF0000
3FC000
07F000
01FC00
007F80
001FE0
0003F8
0000FC
00003C
0000FC
0007F8
001FE0
007F80
01FC00
07F000
3FC000
FE0000
F80000
E00000
800000
000000
000000
000000
FFFFFC
FFFFFC
FFFFFC
ENDCHAR
STARTCHAR 25CA
ENCODING 9674
SWIDTH 472 0
DWIDTH 21 0
BBX 19 32 1 0
BITMAP
00E000
00E000
01F000
01F000
03B800
03B800
071C00
0F1E00
0E0E00
1E0F00
1C0700
3C0780
380380
7803C0
7001C0
F001E0
F001E0
7001C0
7803C0
380380
3C0780
1C0700
1E0F00
0E0E00
0F1E00
071C00
07BC00
03B800
03F800
01F000
01F000
00E000
ENDCHAR
ENDFONT
